<svg data-name="Layer 1" xmlns="http://www.w3.org/2000/svg" viewBox="0 0 400 400"><path d="M345.11 208.39a66.88 66.88 0 00-20.43-45.76A123.17 123.17 0 0078.48 159a68.17 68.17 0 00-23.59 54c1.24 37.14 33 66 70.13 66a6.58 6.58 0 006.57-6.58V148.93a6.58 6.58 0 00-6.57-6.58h-1.8a68.67 68.67 0 00-17.08 2.16A97.47 97.47 0 01297.21 146a71.12 71.12 0 00-22.21-3.65 6.58 6.58 0 00-6.57 6.58v123.6a6.58 6.58 0 006.57 6.58h1.8a68.25 68.25 0 0019-2.71v34.06a12.87 12.87 0 01-12.87 12.86h-23.45a13.73 13.73 0 00-13.26-10.23h-46.93a13.77 13.77 0 00-13.77 13.77V345a13.77 13.77 0 0013.77 13.77h46.93a13.73 13.73 0 0013.09-9.69h36.49a25.72 25.72 0 0025.72-25.73v-60.94a68.2 68.2 0 0023.59-54.02z" fill="#fb7342"/></svg>