<svg id="Layer_1" data-name="Layer 1" xmlns="http://www.w3.org/2000/svg" viewBox="0 0 400 400"><defs><style>.cls-3,.cls-4{fill:#f9693b}.cls-3{font-family:Avenir-Black,Avenir;font-size:25px}</style></defs><text transform="translate(155.6 169.26)" font-family="Avenir-Black,Avenir" fill="#f9693b" font-size="50">170<tspan font-size="42"><tspan x="-21.69" y="52">POINT</tspan></tspan></text><text class="cls-3" transform="matrix(.88 .49 -.49 .87 121.99 332.9)">I</text><text class="cls-3" transform="rotate(23.43 -748.605 480.436) scale(1.01 1)">N</text><text class="cls-3" transform="matrix(.969 .28483 -.282 .95941 149.48 345.72)">S</text><text class="cls-3" transform="matrix(.99379 .18024 -.17846 .98395 164.45 350.1)">P</text><text class="cls-3" transform="matrix(1.01 .07 -.07 1 181.24 353.08)">E</text><text class="cls-3" transform="matrix(1.01 -.04 .04 1 198.31 354.23)">C</text><text class="cls-3" transform="rotate(-8.82 2398.776 -1228.418) scale(1.01 1)">T</text><text class="cls-3" transform="matrix(.98 -.23 .23 .97 231.78 350.77)">I</text><text class="cls-3" transform="rotate(-18.93 1167.048 -545.727) scale(1.01 1)">O</text><text class="cls-3" transform="rotate(-27.29 834.428 -367.65) scale(1.01 1)">N</text><path class="cls-4" d="M96.26 249.19c-.17-.32-.38-.63-.55-.94l-1.46.7 1.53-.74c-1.4-2.23-3.23-5.36-4.7-8.36a19.68 19.68 0 01.16-2.46 6.65 6.65 0 01.41-1.84 26.87 26.87 0 001.06-3.17c1.73-.12 5.81-2 8.64-4a7.72 7.72 0 002.75-3.62c.29-.68.58-1.42.93-2.24a17.63 17.63 0 011.43-2.65c.62-1 1.25-2 1.81-2.94.3-.49.57-1 .82-1.48.13-.25.26-.5.37-.74s.24-.5.35-.74c.22-.49.42-1 .58-1.46a12.38 12.38 0 00.44-1.44c0-.24.1-.48.14-.71l.09-.7a8 8 0 000-1.38 21.47 21.47 0 00-.3-2.25 9.57 9.57 0 00-.38-1.42 5.84 5.84 0 00-.33-.76 1.19 1.19 0 00-.15-.21l-.26.33c-.19.21-.46.51-.81.84a11.32 11.32 0 01-3.25 2.14 26.37 26.37 0 00-4.36 2.59c-1.51 1.06-3.14 2.24-5.08 3.42a34.09 34.09 0 00-4.42 3 9.93 9.93 0 00-2.62 3.46c-.64 1.32-.58 4 0 6.59s1.61 5.05 2.58 6c-.34 1-.85 2.57-1.29 3.76a9.25 9.25 0 00-.44 1.76 33.57 33.57 0 01-1.95-5.1 24.17 24.17 0 00-1-2.82c-.43-1.15-1-2.45-1.52-3.86a49.23 49.23 0 01-2.6-8.75c-.09-.52-.18-1.12-.27-1.79s-.15-1.41-.23-2.2a13.2 13.2 0 001.88-3.18c.07-.37.07-1.26.18-2.28a7.17 7.17 0 011-3.08 16.35 16.35 0 008.13-1.69 18.57 18.57 0 003.12-1.89 11.37 11.37 0 002.16-2.08 71.87 71.87 0 004.47-7.2c.42-.72.81-1.43 1.16-2.12s.72-1.36 1-2a9 9 0 001-3.08 11.61 11.61 0 01.31-2l.29-1.33c.11-.46.21-.92.31-1.36.4-1.78.71-3.32.15-3.28a4.61 4.61 0 00-1.32.31 11.93 11.93 0 00-1.54.75c-.55.31-1.14.67-1.74 1.08s-1.21.83-1.84 1.29-1.26.92-1.9 1.38-1.28.92-1.92 1.35a16.32 16.32 0 01-3.69 2c-2.32.82-3.43 1.32-4.42 2.29a12 12 0 00-1.48 1.93c-.28.42-.57.9-.91 1.46s-.72 1.18-1.14 1.9a13.92 13.92 0 00-1.87 7.5 12.35 12.35 0 00.45 2.87 5.11 5.11 0 00.78 1.67 3 3 0 01-.82 1.4 6 6 0 00-1.26 2.2 16.67 16.67 0 00-.73 2.73c-.2-2.38-.44-5-.76-7.45-.15-2.59-.5-5.32-.75-7.79-.07-.61-.13-1.21-.19-1.79s-.11-1.13-.16-1.66c-.08-1-.15-2-.18-2.72a42.43 42.43 0 01.49-6.88 7.25 7.25 0 012.18-1.65l.73-1c.42-.55 1-1.25 1.46-1.83a2.77 2.77 0 00.81.29 20.74 20.74 0 006.13-.19c2.34-.36 4.6-.95 5.48-1.77 1.8-1.64 5.16-2.21 6.94-3.63a3.49 3.49 0 001-1.4 8.06 8.06 0 00.28-.91c.08-.32.15-.65.2-1s.09-.7.13-1.05.08-.71.11-1.06.07-.71.11-1 .09-.68.14-1a22.26 22.26 0 011.82-4.9c.41-.81.79-1.56 1.09-2.09l.49-.85s-.64.16-1.52.45a15.77 15.77 0 00-2.88 1.3c-1.82 1.12-3.58 1.94-5.78 3.12a21.65 21.65 0 01-5.38 1.39c-2.07.36-4 .65-4.6.83a9.16 9.16 0 00-2.74 2.59c-.52.64-1 1.32-1.43 1.94a12.55 12.55 0 00-.89 1.52 9.82 9.82 0 00-.44 1.2 14.18 14.18 0 00-.39 1.72 7.9 7.9 0 00-.08 1.88 3.94 3.94 0 00.45 1.67 24.91 24.91 0 01-2.91 2.22 58.72 58.72 0 00.93-5.92c0-.5.09-1.18.2-2s.3-1.71.49-2.7c.43-2 1-4.26 1.65-6.43 1.27-4.36 2.88-8.32 3.09-9.14a29.93 29.93 0 011.1-3.45 11.15 11.15 0 012.77-1.41c.42-.15.8-.26 1.06-.34l.31-.08h.11a23.32 23.32 0 016 .83 14.91 14.91 0 005.75.16 15.89 15.89 0 002.46-.58 8 8 0 001.8-.83c.63-.39 1.19-.73 1.71-1s1-.54 1.43-.75c.87-.43 1.6-.72 2.24-1q.54-.22 1-.48c.31-.17.62-.35.93-.55a32.3 32.3 0 017.36-4.19 20.22 20.22 0 002.1-.92c.61-.31 1.11-.63 1.54-.89s.74-.52 1-.69l.25-.2.08-.07-1-.23c-.64-.14-1.55-.33-2.58-.53l-1.63-.32-1.71-.3-3.27-.52c-2-.3-4.42-.64-6.71-.76a17.94 17.94 0 00-5.76.39 14.73 14.73 0 00-2.85 1.24 29.27 29.27 0 00-3 2.16l-.78.63a23.81 23.81 0 00-1.93 1.68 10.66 10.66 0 00-1 1.22 9.37 9.37 0 00-.95 1.56 14.59 14.59 0 01-.72 1.3c-.25.41-.5.79-.75 1.13s-.52.67-.77.95-.48.55-.7.77c-.71.36-2.22 1-3.25 1.49a82.06 82.06 0 016.66-12.81h.07c1.29-2.29 3.18-5.39 5.14-8.15.38-.22.78-.44 1.18-.65l1.18-.58a8.74 8.74 0 012-.69c.79-.13 2.15-.53 3.51-.91 1.06 1.23 5 3.28 8.45 4.32a8.52 8.52 0 002.51.41A13.06 13.06 0 00122 129c.78-.12 1.59-.3 2.53-.43a19.91 19.91 0 013.18-.24 69.49 69.49 0 007-.24 13.77 13.77 0 005.56-1.5c.37-.22.69-.43 1-.62s.55-.36.77-.53a11.39 11.39 0 001-.86 3.14 3.14 0 00.46-.56.68.68 0 00.11-.19l-.41-.08c-.27-.06-.64-.15-1.1-.29a13.08 13.08 0 01-1.59-.62 12.1 12.1 0 01-1.86-1 18.1 18.1 0 00-2.09-1.19c-.76-.38-1.55-.71-2.41-1.06-1.71-.72-3.61-1.42-5.68-2.37a33.52 33.52 0 00-5-2 11.33 11.33 0 00-2.16-.36 12.57 12.57 0 00-2.42.08c-1.59.17-4 1.61-6.15 3.4a21.7 21.7 0 00-2.75 2.77 7.67 7.67 0 00-1.42 2.36l-2 .53-2.17.54a11.22 11.22 0 00-1.88.63c.35-.48.71-.92 1.06-1.34s.67-.82 1-1.17c.63-.71 1.18-1.3 1.61-1.7 1.15-1 2.82-3.19 4.88-5.48a48.23 48.23 0 016.86-6.51c.45-.33 1-.71 1.57-1.11s1.26-.83 2-1.28a18.3 18.3 0 004-.06c.75-.26 3.41-1.74 5.67-1.61a14.85 14.85 0 005.41 5.7 18.13 18.13 0 006 2.58c.43.09 1 .16 1.57.23s1.3.17 2 .24l4.62.51 2.27.25 1.06.1 1 .09a16.75 16.75 0 001.69 0 6.55 6.55 0 00.68 0 2.79 2.79 0 00.55-.12 26.23 26.23 0 014.21-.58c.4 0 .78-.07 1.13-.12a8.63 8.63 0 00.92-.14c.52-.12.82-.27.73-.51-.48-1.32-2.43-2.94-4.82-4.56l-1.85-1.21c-.63-.39-1.25-.79-1.85-1.2a17.49 17.49 0 01-3.12-2.46 20.44 20.44 0 00-2-1.91 6 6 0 00-1.78-1 11.52 11.52 0 00-2.43-.54c-.51-.07-1.1-.15-1.77-.21l-2.3-.2a15.91 15.91 0 00-8.08 1.59 13.69 13.69 0 00-1.44.8 11.48 11.48 0 00-1.13.82 5.1 5.1 0 00-1.25 1.37 3.88 3.88 0 01-1.73 0 4.27 4.27 0 00-1.2-.12 12 12 0 00-1.51.15 19.89 19.89 0 00-3 .72c2.19-1.32 4.61-2.72 6.85-4.09 2.45-1.31 5-2.76 7.32-4 1.17-.64 2.29-1.2 3.3-1.71.27-.13 3.45-1.82 7.36-3.9a16.63 16.63 0 014.7.86 17.22 17.22 0 006.67.67c4.54-.15 5.68-.15 8.52-1.15s7.4-5.33 10.54-8.26 9.1-3.6 9.1-3.6-8.45-6.77-12.67-6.07-6.3 1.83-8.89 1.92-2.11 1.85-7.62 2.62a12.64 12.64 0 00-8.53 6.65 26.13 26.13 0 01-2.5 4.4c-7.92 3.69-16.41 7.77-19 9.28s-5.19 3.14-7.31 4.62c-1 .75-2 1.45-2.92 2.12-.44.33-.86.64-1.25 1l-1.1.86c.08-.54.18-1.2.29-1.82s.25-1.19.36-1.57v-.06c.2-.28.43-.6.71-.93s.59-.67.95-1a16.76 16.76 0 012.63-2.15 25.43 25.43 0 005.18-4.69c.81-.86 1.49-1.53 2.06-2.13s1.07-1.08 1.49-1.55.81-.91 1.17-1.4.73-1 1.16-1.66a11.73 11.73 0 001.14-2.45c.35-.94.68-2 1-3.17s.65-2.29 1-3.44.63-2.24.94-3.24a7.29 7.29 0 01.67-1.5 11.12 11.12 0 011-1.47 18.24 18.24 0 011.24-1.4c.45-.44.91-.86 1.35-1.25a27.73 27.73 0 012.43-1.85c.65-.44 1.07-.7 1.07-.7s-.91 0-2.35.1c-.72 0-1.56.12-2.5.21l-1.46.18c-.5.06-1 .15-1.54.23s-1.06.18-1.6.29l-1.6.35c-.53.13-1.06.27-1.58.42s-1 .31-1.5.48-1 .34-1.41.52-.86.39-1.25.59a8.94 8.94 0 00-1.94 1.29 39.94 39.94 0 00-4.22 4.64c-.51.66-1 1.26-1.48 1.83a18.85 18.85 0 01-1.57 1.68 4.41 4.41 0 00-1.09 1.42 11 11 0 00-.47 1.37 11.62 11.62 0 01-.81 1.89 26 26 0 01-2 3 9.88 9.88 0 00-1.73 4.89 8.33 8.33 0 001.24 5.38 19.54 19.54 0 012.57 5.09v.41c0 .26 0 .63-.06 1.05a12.67 12.67 0 01-.21 1.45 11.53 11.53 0 01-.44 1.59c-.76.62-1.34 1.07-1.66 1.32l-1.5 1.07-1.64 1.4c-.58.5-1.17 1-1.82 1.64s-1.3 1.24-2 1.94a91.73 91.73 0 00-9.84 11.78c-.22-1.37-.43-2.89-.72-4.16.74-.61 2.19-1.82 3.55-3a14.59 14.59 0 002.9-2.92 4.15 4.15 0 00.17-1.76c0-.77-.11-1.71-.22-2.74a40.16 40.16 0 01-.24-6.59 27.37 27.37 0 011.4-5.87 12.52 12.52 0 00.72-5.61c-.15-1-.37-2.14-.6-3.33s-.48-2.42-.7-3.51c-.46-2.2-.82-3.85-.94-3.63s-.35.46-.8 1l-1.72 2.1c-.67.85-1.43 1.82-2.19 2.84s-1.54 2.12-2.25 3.21a59.45 59.45 0 01-5 6c-1.62 1.86-3 3.55-3.4 4.91a10.72 10.72 0 00-.35 1.84 18.93 18.93 0 00-.08 1.92v2.64c0 1.07-.09 2.36-.17 4a8.31 8.31 0 00.42 3.55 4.34 4.34 0 001.63 2c1.46 1 3.65 1.58 6.53 2.92.18 1.76.48 4.13.73 6.08-.45.68-.93 1.39-1.39 2.15q-.36.56-.72 1.14c-.24.39-.47.79-.72 1.2-1.64 2.73-3.34 5.87-4.89 9.14s-3 6.7-4.14 9.95a23.24 23.24 0 01-1.61-3.62 11.06 11.06 0 01-.55-2.49 3.19 3.19 0 01.41-2 13.27 13.27 0 002.33-8.5 23.24 23.24 0 00-.46-3.66 20.85 20.85 0 00-.66-2.44 3.86 3.86 0 00-.87-1.41c-1.18-1.35-3.08-2.52-3.72-5a22.11 22.11 0 00-2.8-5.62 20.28 20.28 0 00-2.85-3.68 8.35 8.35 0 01-1.48-1.62c-.44-.59-.75-1.09-.75-1.09l-.17 1-.46 2.44c-.38 2-.9 4.6-1.47 7.07-.08.31-.16.61-.23.92-.34 1.28-.69 2.41-1.07 3.43s-.72 2-1 2.89a15.48 15.48 0 00-.62 2.72 9.08 9.08 0 00.18 2.9 28.38 28.38 0 001 4 15.39 15.39 0 002.91 3.92c1.79 2 4.44 3.37 6.72 4.61s4.19 2.3 4.54 3.53c.23.82.5 1.79.76 2.75l.38 1.37c.13.44.25.85.35 1.21-.16.52-.32 1-.48 1.52s-.29 1-.42 1.46c-.29.94-.52 1.85-.74 2.69-.79 3.07-1.36 5.8-1.78 8.24s-.7 4.59-.87 6.49c0 .48-.09.93-.13 1.38s-.07.87-.09 1.29c-.06.83-.11 1.61-.12 2.34s0 1.4 0 2v3.27c-.33-.32-1-1-1.76-1.8s-1.65-1.72-2.37-2.54c3.3-4.43 5-8.13 2.8-11.3-2.31-3.36-3.45-6.66-5.1-10.5a14.69 14.69 0 00-3.69-4.73 14.42 14.42 0 01-3.66-4.63 16.741 16.741 0 00-1.3-2.55 18 18 0 00-1.34-1.92c-.42-.53-.79-.94-1.06-1.22s-.42-.42-.42-.42-.2.56-.47 1.52l-.5 1.72c-.18.66-.36 1.41-.56 2.21a67.84 67.84 0 00-1.78 11 31.74 31.74 0 001.62 11.68q.48 1.38 1 2.61c.38.81.78 1.57 1.19 2.26a10.29 10.29 0 002.62 3.07 11.48 11.48 0 005.25 1.8 24.22 24.22 0 004.26.16c1.06 1 2.18 2.14 3.16 3.19a12.56 12.56 0 012.07 2.74 131.12 131.12 0 002.81 27.74 35.94 35.94 0 01-2.92-2.22 14.36 14.36 0 01-1.84-5.33 19.87 19.87 0 00-2.14-6.22c-.48-1-.83-1.85-1.16-2.56s-.6-1.31-.88-1.85-.56-1-.89-1.51-.7-1-1.16-1.59a23.09 23.09 0 00-4.77-3.9c-1-.69-2.08-1.38-3.12-2.05s-2.06-1.31-2.94-1.9a10.45 10.45 0 01-2.42-2.33 18.32 18.32 0 01-1.77-2.86 21.52 21.52 0 01-1.07-2.42c-.24-.64-.36-1-.36-1s-.3.68-.71 1.79c-.21.54-.44 1.2-.67 1.93s-.48 1.52-.69 2.35c-.88 3.34-1.33 7.29-.34 9.42.52 1.07 1 2 1.48 2.77s.91 1.49 1.31 2.14a21.41 21.41 0 012.08 3.69 5 5 0 002 2.33 14.69 14.69 0 013.52 4.23 11.16 11.16 0 003.88 3.54 11.36 11.36 0 005.8 1.61 24.54 24.54 0 016.17.53h.12l.29.16c.24.13.58.32 1 .57a13.64 13.64 0 012.57 2c.2.91.34 1.59.4 2a73 73 0 002.14 8.55 92.87 92.87 0 005.6 13.84c-1.39-.59-2.92-1.26-4.26-1.75-.08-.45-.2-1.1-.34-1.86s-.31-1.6-.48-2.43c-.09-.41-.17-.82-.27-1.21s-.17-.76-.27-1.09a4.76 4.76 0 00-.6-1.46 5.14 5.14 0 00-1.54-1.09c-.38-.19-.79-.4-1.25-.61l-1.44-.68a54.32 54.32 0 01-6.3-3.25 21.7 21.7 0 01-2.57-2c-.78-.69-1.5-1.4-2.24-2.07a14.29 14.29 0 00-4.94-3.28c-1-.35-2.22-.74-3.48-1.13s-2.54-.78-3.71-1.12c-2.32-.67-4.1-1.15-4-1s.78 1.48 1.68 3.26c.47.89 1 1.89 1.56 2.94s1.19 2.14 1.84 3.19a27.05 27.05 0 011.64 3.44c.24.56.47 1.13.69 1.69s.45 1.11.66 1.64a30.45 30.45 0 001.29 2.93 7.28 7.28 0 001.42 2.08 10.35 10.35 0 001.52 1.24c.51.35 1.07.67 1.73 1s1.44.83 2.42 1.42 2.14 1.33 3.6 2.27a14.64 14.64 0 001.9 1.06 8.62 8.62 0 001.62.55 5.2 5.2 0 002.73-.14c1.74-.55 3.48-1.85 6.32-3.28.86.41 1.88.9 2.94 1.38l3.1 1.43c.37.71.77 1.46 1.21 2.23l.67 1.17c.11.2.24.41.36.62h4.06z"/><path class="cls-4" d="M338.63 254.1a10.88 10.88 0 01-2.32-.22 24.24 24.24 0 00-5-.11 27.42 27.42 0 00-6.74 1c-2.7.92-4.83.14-6.73 0a5.36 5.36 0 00-1.79.13 25.19 25.19 0 00-2.63.87 27 27 0 00-3.65 1.7 15.47 15.47 0 00-6.63 6.45 3.58 3.58 0 01-1.62 1.4 14.2 14.2 0 01-2.62 1 29.62 29.62 0 01-4.27.75 101.74 101.74 0 007-8.55c2.19-3 4.15-6 5.77-8.72l-3.14-1.51a81.2 81.2 0 01-8.18 12c-.07-.51-.15-1.14-.24-1.74s-.14-1.15-.17-1.51V257a14.42 14.42 0 01.78-2c.18-.38.4-.78.64-1.18a13.82 13.82 0 01.8-1.26 8.64 8.64 0 00.92-1.57 10 10 0 00.55-1.44 18.74 18.74 0 00.48-2.37q.09-.49.15-.93a21.92 21.92 0 00.35-3.41A11 11 0 00300 240a14.31 14.31 0 00-2.81-4.56c-.7-.84-1.44-1.66-2.2-2.46s-1.5-1.55-2.18-2.21-1.46-1.44-2.26-2.21-1.62-1.54-2.37-2.22c-1.49-1.37-2.65-2.38-2.65-2.38a7.64 7.64 0 00-.22 1.57 11.81 11.81 0 000 1.72 16.34 16.34 0 00.26 2.14 27.57 27.57 0 01.13 8 10 10 0 00.12 2c.09.63.22 1.34.31 2.23 0 .44.1.93.11 1.48s0 1.15 0 1.83a6.55 6.55 0 00.25 1.79 11.65 11.65 0 00.83 2.15 12.29 12.29 0 003.33 4.2 20.26 20.26 0 014.08 4 .36.36 0 000 .11c0 .06.05.16.1.28s.17.57.26 1a8.33 8.33 0 01.16 2.92c-.5.57-1 1.1-1.4 1.55s-.85.84-1.19 1.15c-.16.15-.46.47-.88.91s-.92 1-1.54 1.69c-1.21 1.32-2.81 2.95-4.51 4.57s-3.58 3.23-5.26 4.54c-.85.65-1.62 1.25-2.34 1.72a19.17 19.17 0 01-1.79 1.13c-1.21.66-3.06 2-5.28 3.53a22.14 22.14 0 01.77-3.33 5.63 5.63 0 001.82-.42 11.2 11.2 0 001.76-1 12.93 12.93 0 001.44-1.14 8.65 8.65 0 00.92-.93 12.57 12.57 0 001-1.43c.38-.63.76-1.36 1.1-2.07a7.81 7.81 0 001-3.4c-.14-.53-.88-2.16-1.66-3.92a17.51 17.51 0 01-1.59-4.78c-.05-1.12-.13-2.12-.2-3.08s-.12-1.87-.1-2.83a11.61 11.61 0 00-.4-2.81c-.11-.4-.22-.74-.3-1s-.13-.38-.13-.38a2.32 2.32 0 00-.14.22c-.08.13-.21.34-.37.58-.33.47-.75 1.16-1.29 1.86-.27.35-.54.73-.83 1.08s-.59.72-.88 1.05-.6.64-.89.93a8.06 8.06 0 01-.81.71c-1 .77-2.32 1.54-3.43 2.31-.27.2-.53.4-.77.61a4.85 4.85 0 00-.65.62 3 3 0 00-.73 1.4 5.9 5.9 0 000 1.63c.05.58.14 1.19.24 1.8a8.81 8.81 0 010 3.54c-.3 1.06.25 3.07 1.06 5.08a17 17 0 002.75 4.91 2.29 2.29 0 00.67.51c-.34.64-.74 1.41-1.08 2s-.59 1-.59 1a5.94 5.94 0 01-.07.79 5.7 5.7 0 01-.54 1.68 42.42 42.42 0 01-6.59 3.38c-1.52.58-3.81 1.32-6.41 2s-5.48 1.43-8.19 2.17c-2.64.55-5.4 1.2-8 1.72.4-.18.84-.41 1.29-.65a14.46 14.46 0 001.32-.8 6 6 0 001.86-1.77 3.14 3.14 0 011.15-1.14 10.25 10.25 0 005-.51 14.58 14.58 0 006.69-4.33c.53-.62 1-1.19 1.37-1.68s.73-.92 1-1.32.53-.74.72-1.06a6.89 6.89 0 00.48-.93 5.09 5.09 0 00.38-1.85 16.76 16.76 0 00-.22-2.63 14.71 14.71 0 01.13-3.76c.1-.67.2-1.38.31-2.07 0-.35.11-.69.16-1s.11-.7.16-1a26.87 26.87 0 00.33-3.78 5.79 5.79 0 00-.51-2.67c-.13-.22-.49-.12-1 .18-.25.15-.52.34-.82.55s-.62.48-1 .73a27.8 27.8 0 01-3.56 2.53c-1.26.61-2.92 2.79-4.73 5.12-.89 1.14-1.81 2.35-2.63 3.41s-1.52 2-1.94 2.69a10.53 10.53 0 00-1.13 2.49 16.35 16.35 0 00-.72 3.23 13.29 13.29 0 001 7.43 5.6 5.6 0 01-1.29 1 11.78 11.78 0 01-1.51.75c-1 .42-1.95.66-2.29.84a6.8 6.8 0 00-1.48 1.2l-.75.77c-.22.24-.41.44-.55.57-1.69.31-3.19.52-4.33.63a48.62 48.62 0 01-9.9-.28s-14.31 1-22.08 3.91c-7.77-2.89-22.08-3.91-22.08-3.91a48.62 48.62 0 01-9.9.28c-1.13-.11-2.64-.32-4.33-.63l-.55-.57c-.22-.23-.48-.51-.75-.77a7 7 0 00-1.47-1.2c-.35-.18-1.28-.42-2.28-.84a12 12 0 01-1.53-.75 5.82 5.82 0 01-1.29-1 13.29 13.29 0 001-7.43 17.09 17.09 0 00-.72-3.23 10.54 10.54 0 00-1.12-2.49c-.42-.69-1.14-1.61-1.95-2.69s-1.73-2.27-2.63-3.41c-1.8-2.33-3.47-4.51-4.73-5.12a27.8 27.8 0 01-3.56-2.53c-.34-.25-.65-.51-1-.73s-.57-.4-.82-.55c-.48-.3-.83-.4-1-.18a5.79 5.79 0 00-.51 2.67 25.55 25.55 0 00.34 3.78l.15 1c0 .34.11.68.16 1 .12.69.22 1.4.31 2.07a14.27 14.27 0 01.13 3.76 18.08 18.08 0 00-.22 2.63 4.89 4.89 0 00.39 1.85 5.16 5.16 0 00.48.93c.19.32.43.67.71 1.06s.62.84 1 1.32.84 1.06 1.38 1.68a14.5 14.5 0 006.68 4.33 10.29 10.29 0 005 .51 3.22 3.22 0 011.15 1.14 5.91 5.91 0 001.84 1.77c.43.29.88.55 1.34.8s.88.47 1.28.65c-2.56-.52-5.32-1.17-8-1.72-2.71-.74-5.59-1.45-8.19-2.17s-4.89-1.46-6.41-2a42.78 42.78 0 01-6.58-3.38 5.46 5.46 0 01-.55-1.68 5.94 5.94 0 01-.07-.79l-.58-1c-.35-.58-.75-1.35-1.09-2a2.17 2.17 0 00.67-.51 17.27 17.27 0 002.76-4.91c.8-2 1.35-4 1.06-5.08a8.63 8.63 0 010-3.54c.09-.61.18-1.22.24-1.8a5.88 5.88 0 000-1.63 2.88 2.88 0 00-.73-1.4 5.53 5.53 0 00-.65-.62 8.27 8.27 0 00-.77-.61c-1.11-.77-2.41-1.54-3.43-2.31a7 7 0 01-.8-.71c-.29-.29-.6-.59-.89-.93s-.6-.69-.89-1.05-.56-.73-.83-1.08c-.53-.7-1-1.39-1.29-1.86-.17-.24-.28-.45-.37-.58s-.13-.22-.13-.22-.06.14-.14.38-.19.58-.29 1a11.13 11.13 0 00-.41 2.81c0 1 0 1.89-.1 2.83s-.15 2-.19 3.08a18.31 18.31 0 01-1.6 4.78c-.77 1.76-1.52 3.39-1.65 3.92s.33 1.95 1 3.4c.34.71.73 1.44 1.1 2.07a11.4 11.4 0 001 1.43 8.65 8.65 0 00.92.93 12.22 12.22 0 001.45 1.14 10.67 10.67 0 001.75 1 5.69 5.69 0 001.82.42 21 21 0 01.77 3.33c-2.22-1.5-4.07-2.87-5.28-3.53a19.17 19.17 0 01-1.79-1.13c-.72-.47-1.5-1.07-2.34-1.72-1.68-1.31-3.54-2.9-5.26-4.54s-3.3-3.25-4.5-4.57c-.62-.65-1.13-1.24-1.55-1.69s-.72-.76-.88-.91c-.34-.31-.74-.7-1.18-1.15s-.91-1-1.42-1.55a8.55 8.55 0 01.17-2.92c.09-.4.19-.73.26-1s.08-.22.1-.28a.55.55 0 000-.1 19.71 19.71 0 014.08-4 12.76 12.76 0 004.16-6.35 6.55 6.55 0 00.25-1.79v-1.83c0-.55.06-1 .11-1.48.09-.89.21-1.6.31-2.23a10 10 0 00.12-2 27.93 27.93 0 01.13-8 14.79 14.79 0 00.26-2.14 13.61 13.61 0 000-1.72 9.88 9.88 0 00-.22-1.57s-1.16 1-2.66 2.38c-.74.68-1.56 1.45-2.36 2.22s-1.61 1.55-2.27 2.21-1.42 1.41-2.18 2.21-1.5 1.62-2.19 2.46a14.31 14.31 0 00-2.81 4.56 10.61 10.61 0 00-.42 2.84 21.92 21.92 0 00.35 3.41c0 .29.09.6.15.93a17.33 17.33 0 00.49 2.37 9 9 0 00.55 1.44 8.56 8.56 0 00.91 1.57c.3.42.57.85.81 1.26a11.25 11.25 0 01.62 1.18 13.45 13.45 0 01.79 2V257c0 .36-.1.92-.18 1.51s-.16 1.23-.22 1.74a80.71 80.71 0 01-7.64-11.1H92.2c.12.19.23.38.34.58 1.62 2.73 3.58 5.74 5.77 8.72a101.74 101.74 0 007 8.55 29.68 29.68 0 01-4.28-.75 13.94 13.94 0 01-2.62-1 3.55 3.55 0 01-1.61-1.4 15.46 15.46 0 00-6.65-6.45 27.45 27.45 0 00-3.64-1.7 26.84 26.84 0 00-2.63-.87 5.34 5.34 0 00-1.79-.13c-1.9.13-4 .91-6.72 0a27.58 27.58 0 00-6.75-1 24.24 24.24 0 00-5 .11 10.82 10.82 0 01-2.32.22h-1.41l.77.63 2 1.67c1.63 1.38 3.74 3.19 5.71 5 .24.24.48.46.73.69 1 1 1.84 1.86 2.59 2.72s1.44 1.64 2.12 2.38a18 18 0 002.2 2 12 12 0 002.81 1.5 35.19 35.19 0 004.32 1.5 18.37 18.37 0 005.28 0 26.89 26.89 0 008-2.52c2.41-1.05 4.44-1.91 5.78-1.5l3 .91 2.82.84c1.61 1.59 3.12 3 4.51 4.25 2.51 2.2 4.85 4 7 5.57s4.13 2.8 5.9 3.86a66.7 66.7 0 008.59 4.33c.32.12.82.35 1.49.66-.47.12-1.43.36-2.58.63s-2.45.53-3.61.77c-3-4.7-5.75-7.78-9.93-7.65-1.09 0-2.16 0-3.22-.06s-2.07-.2-3.12-.34-2.07-.32-3.14-.5l-3.31-.58a13.5 13.5 0 00-3.34-.14c-1.07.08-2.11.25-3.16.42a17.39 17.39 0 01-6.41.26 24.36 24.36 0 00-5.69-.49 16.3 16.3 0 00-2.38.2l1.22 1.23 1.41 1.35c.55.5 1.15 1.08 1.84 1.67a75.57 75.57 0 0010 7.52 41.26 41.26 0 0012.72 5c4.39.92 8.38.93 10.52.13a10.07 10.07 0 004.22-3.38 20.09 20.09 0 002.06-3.36c1.47-.37 3.15-.8 4.62-1.12a16.83 16.83 0 013.65-.52c1.67.69 3.75 1.53 6.18 2.35s5.18 1.64 8.14 2.35a87.73 87.73 0 008.74 1.67c2.65.38 5 .55 6.81.69a32.92 32.92 0 01-3.18 1.94h-.05a18.36 18.36 0 01-6.3 0c-.81-.13-1.57-.23-2.27-.28-.36 0-.7 0-1-.05h-1c-.61 0-1.19 0-1.71.05s-1 0-1.43.06c-1.26.05-2.27 0-3.16.05s-1.61 0-2.29 0a27.9 27.9 0 00-4.11.5 14.17 14.17 0 00-2.79.86c-1 .41-2.14.9-3.3 1.44l-3.49 1.66-1.71.81-1.59.73a16.81 16.81 0 01-7.45.93 30.06 30.06 0 01-3.11-.34c-.78-.13-1.26-.23-1.26-.23s.6.58 1.6 1.47a50.45 50.45 0 004.12 3.21 37.57 37.57 0 005.42 3.16 20.79 20.79 0 002.7 1 9.24 9.24 0 002.38.43h2c.62 0 1.21 0 1.76-.06l1.56-.1 1.41-.13c.9-.1 1.72-.17 2.54-.23a20.48 20.48 0 012.49-.07 6.66 6.66 0 003.42-.82 13.56 13.56 0 012.15-.75c.47-.12 1-.24 1.67-.36s1.39-.25 2.24-.36a11.06 11.06 0 002.64-.73 13.85 13.85 0 001.35-.64c.45-.25.89-.53 1.31-.82a11 11 0 002.2-2 7.69 7.69 0 001.35-2.47 19.92 19.92 0 012.31-5.2l.09-.08.25-.21c.21-.17.52-.42.88-.69s.81-.56 1.3-.87a13 13 0 011.57-.83h1.35c.37 0 .66 0 .87.05.68.05 1.4.09 2.18.11h.48a65.6 65.6 0 0120 4.2c-8 5.61-12.29 14.5-12.29 14.5h6A30.83 30.83 0 01200 303.91a30.76 30.76 0 0112.07 11.74h6s-4.28-8.89-12.29-14.5a65.6 65.6 0 0120-4.2h.48c.78 0 1.51-.06 2.17-.11.22 0 .51 0 .89-.05h1.33a11.77 11.77 0 011.58.83c.49.31.93.6 1.3.87s.68.52.88.69l.25.21.09.08a19.59 19.59 0 012.31 5.2 7.69 7.69 0 001.35 2.47 10.73 10.73 0 002.2 2c.42.29.86.57 1.31.82a13.85 13.85 0 001.35.64 11.06 11.06 0 002.64.73c.86.11 1.6.24 2.25.36s1.19.24 1.67.36a13.38 13.38 0 012.14.75 6.67 6.67 0 003.43.82 20.21 20.21 0 012.47.07c.82.06 1.65.13 2.55.23l1.41.13 1.57.1c.54 0 1.13 0 1.76.06s1.28 0 2 0a9.24 9.24 0 002.38-.43 20.26 20.26 0 002.7-1 36.52 36.52 0 005.42-3.16 50.45 50.45 0 004.12-3.21c1-.89 1.6-1.47 1.6-1.47s-.48.1-1.26.23a30.06 30.06 0 01-3.11.34 16.83 16.83 0 01-7.45-.93l-1.59-.73-1.71-.81-3.49-1.66c-1.16-.54-2.27-1-3.3-1.44a14.17 14.17 0 00-2.79-.86 27.78 27.78 0 00-4.1-.5h-2.3c-.89 0-1.9 0-3.16-.05-.43 0-.91-.05-1.43-.06s-1.09-.05-1.71-.05h-1c-.34 0-.68 0-1 .05-.71.05-1.46.15-2.28.28a18.36 18.36 0 01-6.3 0h-.05a32.92 32.92 0 01-3.18-1.94c1.82-.14 4.16-.31 6.81-.69a87.73 87.73 0 008.74-1.67c3-.71 5.72-1.53 8.14-2.35s4.51-1.66 6.18-2.35a16.83 16.83 0 013.65.52c1.48.32 3.15.75 4.62 1.12a20.09 20.09 0 002.06 3.36 10 10 0 004.23 3.38c2.14.8 6.12.79 10.51-.13a41.26 41.26 0 0012.72-5 76.23 76.23 0 0010-7.52c.68-.59 1.29-1.17 1.84-1.67s1-1 1.4-1.35l1.23-1.23a16.25 16.25 0 00-2.37-.2 24.44 24.44 0 00-5.7.49 17.39 17.39 0 01-6.41-.26c-1-.17-2.09-.34-3.16-.42a13.42 13.42 0 00-3.33.14l-3.31.58c-1.08.18-2.13.35-3.15.5s-2.08.26-3.12.34-2.13.09-3.22.06c-4.17-.13-6.92 2.95-9.92 7.65-1.16-.24-2.47-.5-3.62-.77s-2.11-.51-2.58-.63c.67-.31 1.18-.54 1.49-.66a66.7 66.7 0 008.59-4.33c1.77-1.06 3.75-2.3 5.89-3.86a89.13 89.13 0 007-5.57c1.38-1.21 2.9-2.66 4.51-4.25l2.83-.84 3-.91c1.33-.41 3.36.45 5.77 1.5a26.89 26.89 0 008 2.52 18.37 18.37 0 005.28 0 35.19 35.19 0 004.32-1.5 12 12 0 002.81-1.5 18 18 0 002.2-2c.69-.74 1.35-1.54 2.13-2.38s1.59-1.76 2.59-2.72l.73-.69c2-1.8 4.07-3.61 5.7-5l2-1.67.77-.63s-.61-.12-1.39-.12z"/><path class="cls-4" d="M318.84 220.71c.06-.37.2-1.05.4-2a14 14 0 012.57-2c.39-.25.73-.44 1-.57l.3-.16h.11a24.54 24.54 0 016.17-.53 11.36 11.36 0 005.8-1.61 11.07 11.07 0 003.88-3.54 14.84 14.84 0 013.43-4.3 5 5 0 002-2.33 23.69 23.69 0 012.1-3.67c.42-.64.88-1.33 1.35-2.13s1-1.7 1.46-2.77c1-2.13.55-6.08-.32-9.42-.22-.83-.47-1.63-.7-2.35s-.46-1.39-.67-1.93c-.41-1.11-.71-1.79-.71-1.79s-.12.39-.36 1a23.15 23.15 0 01-1.06 2.42 20.06 20.06 0 01-1.78 2.86 10.61 10.61 0 01-2.41 2.33c-.89.59-1.91 1.23-2.95 1.9s-2.1 1.36-3.12 2.05a22.83 22.83 0 00-4.77 3.9c-.46.59-.83 1.1-1.16 1.59s-.61 1-.89 1.51-.55 1.13-.87 1.85-.69 1.55-1.17 2.56a20.13 20.13 0 00-2.14 6.22 14.55 14.55 0 01-1.83 5.33h-.05a34.26 34.26 0 01-2.92 2.22 126 126 0 002.17-14.05 129.5 129.5 0 00.64-13.69 12.67 12.67 0 012.08-2.74c1-1 2.1-2.18 3.15-3.19a24.35 24.35 0 004.27-.16 11.56 11.56 0 005.25-1.8 10.57 10.57 0 002.61-3.07c.41-.69.81-1.45 1.19-2.26s.7-1.69 1-2.61a31.33 31.33 0 001.62-11.68 67.84 67.84 0 00-1.78-11c-.2-.8-.38-1.55-.55-2.21s-.37-1.24-.5-1.72c-.28-1-.47-1.52-.47-1.52a5 5 0 00-.43.42c-.27.28-.64.69-1.06 1.22a18 18 0 00-1.34 1.92c-.23.38-.45.78-.67 1.2a13.92 13.92 0 00-.63 1.35 14.29 14.29 0 01-3.66 4.63 14.55 14.55 0 00-3.69 4.73c-1.65 3.84-2.79 7.14-5.1 10.5-2.19 3.17-.5 6.87 2.8 11.3-.72.82-1.61 1.75-2.37 2.54s-1.43 1.48-1.77 1.8v-1.48-1.79-2c0-.68-.07-1.51-.13-2.34 0-.42-.05-.85-.09-1.29s-.08-.9-.13-1.38c-.17-1.9-.47-4-.87-6.49s-1-5.17-1.77-8.24c-.23-.84-.46-1.75-.74-2.69-.15-.47-.29-1-.43-1.46s-.32-1-.48-1.52c.11-.36.23-.77.35-1.21l.38-1.37c.26-1 .54-1.93.77-2.75.35-1.23 2.26-2.3 4.53-3.53s4.93-2.65 6.72-4.61a15.39 15.39 0 002.91-3.92 28.38 28.38 0 001-4 8.81 8.81 0 00.18-2.9 14.63 14.63 0 00-.62-2.72c-.29-.91-.66-1.85-1-2.89s-.74-2.15-1.08-3.43c-.07-.31-.14-.61-.22-.92-.58-2.47-1.1-5.07-1.47-7.07-.2-1-.36-1.85-.47-2.44s-.17-1-.17-1-.31.5-.75 1.09a8.68 8.68 0 01-1.48 1.62 21.25 21.25 0 00-2.85 3.68 22.11 22.11 0 00-2.8 5.62c-.64 2.52-2.54 3.69-3.72 5a4.15 4.15 0 00-.87 1.41 20.85 20.85 0 00-.66 2.44 23.24 23.24 0 00-.46 3.66 13.27 13.27 0 002.33 8.5 3.19 3.19 0 01.41 2 11 11 0 01-.54 2.49 23 23 0 01-1.62 3.62c-1.16-3.25-2.57-6.67-4.13-9.95s-3.26-6.41-4.89-9.14c-.25-.41-.48-.81-.72-1.2l-.72-1.14c-.46-.76-.94-1.47-1.39-2.15.26-2 .55-4.32.73-6.08 2.88-1.34 5.07-1.92 6.53-2.92a4.2 4.2 0 001.62-2 8 8 0 00.43-3.55c-.08-1.63-.16-2.92-.17-4s0-1.91 0-2.64a19.1 19.1 0 00-.07-1.92 11.88 11.88 0 00-.36-1.84c-.41-1.36-1.78-3-3.4-4.91a59.45 59.45 0 01-5-6c-.7-1.09-1.48-2.17-2.24-3.21s-1.53-2-2.2-2.84l-1.72-2.1c-.45-.54-.74-.89-.8-1s-.48 1.43-.93 3.63c-.24 1.09-.48 2.31-.71 3.51s-.45 2.35-.6 3.33a12.52 12.52 0 00.72 5.61 27.37 27.37 0 011.4 5.87 39.08 39.08 0 01-.24 6.59c-.11 1-.2 2-.22 2.74a4.15 4.15 0 00.17 1.76 14.88 14.88 0 002.9 2.92c1.37 1.16 2.81 2.37 3.55 3-.28 1.27-.5 2.79-.73 4.16a91 91 0 00-9.83-11.78c-.71-.7-1.37-1.35-2-1.94s-1.24-1.14-1.82-1.64-1.13-1-1.65-1.4l-1.49-1.17-1.65-1.32a11.53 11.53 0 01-.44-1.59 12.67 12.67 0 01-.21-1.45c0-.42-.05-.79-.06-1.05a2.27 2.27 0 000-.29 1.09 1.09 0 000-.12 19.54 19.54 0 012.57-5.09 8.4 8.4 0 001.32-5.39 9.89 9.89 0 00-1.75-4.89 28.52 28.52 0 01-2-3 12.59 12.59 0 01-.81-1.89 9.55 9.55 0 00-.47-1.37 4.32 4.32 0 00-1.1-1.42 22.18 22.18 0 01-1.59-1.68c-.49-.57-1-1.17-1.48-1.83a39 39 0 00-4.22-4.64 8.7 8.7 0 00-1.94-1.29c-.39-.2-.81-.4-1.25-.59s-.93-.36-1.4-.52-1-.34-1.51-.48-1.05-.29-1.58-.42l-1.6-.35c-.54-.11-1.07-.2-1.6-.29s-1-.17-1.54-.23l-1.46-.18c-.93-.09-1.78-.17-2.5-.21-1.44-.08-2.34-.1-2.34-.1s.42.26 1.06.7a27.73 27.73 0 012.43 1.85c.45.39.91.81 1.35 1.25a18.38 18.38 0 011.25 1.4 13.41 13.41 0 011 1.47 7.86 7.86 0 01.67 1.5c.3 1 .63 2.09.94 3.24s.63 2.32 1 3.44.65 2.23 1 3.17a11.23 11.23 0 001.15 2.45c.42.63.78 1.17 1.14 1.66s.75.92 1.17 1.4.92 1 1.5 1.55 1.25 1.27 2.06 2.13a25.43 25.43 0 005.18 4.69 17.86 17.86 0 012.64 2.15c.35.35.67.7.94 1s.51.65.71.93v.06c.11.38.24 1 .36 1.57s.22 1.28.3 1.82l-1.11-.86c-.39-.31-.81-.62-1.24-1-.88-.67-1.87-1.37-2.93-2.12-2.11-1.48-4.59-3.07-7.31-4.62s-11.09-5.59-19-9.28a26.85 26.85 0 01-2.5-4.4 12.64 12.64 0 00-8.52-6.65c-5.51-.77-5-2.54-7.62-2.62s-4.67-1.22-8.89-1.92-12.7 6.17-12.7 6.17 6 .73 9.15 3.65 7.7 7.27 10.54 8.26 4 1 8.53 1.15a17.18 17.18 0 006.66-.67 16.63 16.63 0 014.69-.86c3.92 2.08 7.1 3.77 7.38 3.9 1 .51 2.13 1.07 3.29 1.71 2.34 1.25 4.87 2.7 7.31 4 2.26 1.37 4.68 2.77 6.86 4.09a19.89 19.89 0 00-3-.72 12 12 0 00-1.51-.15 4.31 4.31 0 00-1.2.12 3.84 3.84 0 01-1.72 0 5.18 5.18 0 00-1.26-1.37 10.4 10.4 0 00-1.13-.82 13.69 13.69 0 00-1.44-.8 15.89 15.89 0 00-8.04-1.63l-2.31.2c-.67.06-1.26.14-1.77.21a11.52 11.52 0 00-2.43.54 6 6 0 00-1.78 1 19.42 19.42 0 00-2 1.91 18.24 18.24 0 01-3.12 2.46c-.6.41-1.23.81-1.85 1.2l-1.85 1.21c-2.4 1.62-4.35 3.24-4.82 4.56-.09.24.2.39.72.51a8.63 8.63 0 00.92.14c.35 0 .74.08 1.14.12a26.08 26.08 0 014.2.58 2.79 2.79 0 00.55.12h.68a16.75 16.75 0 001.69 0l1-.09 1.05-.1 2.27-.25 4.62-.51c.73-.07 1.41-.16 2-.24s1.14-.14 1.57-.23a18.13 18.13 0 006-2.58 14.8 14.8 0 005.42-5.7c2.25-.13 4.91 1.35 5.66 1.61a18.3 18.3 0 004 .06c.72.45 1.38.89 2 1.28s1.12.78 1.57 1.11a48.23 48.23 0 016.86 6.51c2.06 2.29 3.74 4.44 4.88 5.48.43.4 1 1 1.61 1.7.32.35.64.75 1 1.17s.71.86 1.06 1.34a10.93 10.93 0 00-1.88-.63l-2.17-.54-2-.53a8 8 0 00-1.43-2.36 23 23 0 00-2.74-2.77c-2.11-1.79-4.57-3.23-6.15-3.4a12.61 12.61 0 00-2.42-.08 11.18 11.18 0 00-2.17.36 33.52 33.52 0 00-5 2c-2.07 1-4 1.65-5.68 2.37-.85.35-1.65.68-2.41 1.06a19 19 0 00-2.09 1.19 12.1 12.1 0 01-1.86 1 11.93 11.93 0 01-1.59.62c-.46.14-.83.23-1.1.29l-.41.08a.68.68 0 00.11.19 3.68 3.68 0 00.46.56 11.39 11.39 0 001 .86c.22.17.48.34.77.53s.61.4 1 .62a13.77 13.77 0 005.56 1.5 69.69 69.69 0 007 .24 19.87 19.87 0 013.17.24c.94.13 1.75.31 2.53.43a13.14 13.14 0 002.31.21 8.58 8.58 0 002.52-.41c3.42-1 7.38-3.09 8.44-4.32 1.36.38 2.72.78 3.51.91a8.57 8.57 0 012 .69l1.18.58c.41.21.8.43 1.18.65a95.11 95.11 0 015.14 8.15h.07a82.06 82.06 0 016.61 12.76c-1-.48-2.54-1.13-3.25-1.49h-.05c-.22-.22-.46-.48-.7-.77a11.28 11.28 0 01-.76-.95 13 13 0 01-.76-1.13c-.25-.41-.49-.84-.72-1.3a9.37 9.37 0 00-.95-1.56 10.66 10.66 0 00-1-1.22c-.71-.7-1.38-1.24-1.92-1.68-.29-.22-.54-.43-.79-.63a29.27 29.27 0 00-3-2.16 14.47 14.47 0 00-2.85-1.24 17.94 17.94 0 00-5.76-.39c-2.29.12-4.76.46-6.72.76l-3.26.52-1.71.3-1.63.32c-1 .2-1.93.39-2.58.53l-1 .23.09.07c.06.05.13.12.24.2a11.65 11.65 0 001 .69c.42.26.93.58 1.53.89a20.22 20.22 0 002.1.92 32.4 32.4 0 017.37 4.19c.3.2.61.38.93.55s.65.33 1 .48c.64.29 1.37.58 2.23 1q.66.32 1.44.75t1.71 1a8 8 0 001.8.83 16.16 16.16 0 002.46.58 14.91 14.91 0 005.75-.16 23.25 23.25 0 016-.83h.12l.31.08c.27.08.64.19 1.06.34a11.15 11.15 0 012.82 1.48 35 35 0 011.11 3.45c.21.82 1.81 4.78 3.08 9.14.66 2.17 1.22 4.45 1.65 6.43.2 1 .37 1.91.49 2.7s.18 1.48.2 2c.06 1.29.49 3.43.93 5.92a24.91 24.91 0 01-2.91-2.22 4.09 4.09 0 00.45-1.67 7.9 7.9 0 00-.08-1.88 14.18 14.18 0 00-.39-1.72 9.82 9.82 0 00-.44-1.2 12.55 12.55 0 00-.89-1.52c-.42-.62-.91-1.3-1.43-1.94a9.16 9.16 0 00-2.74-2.59c-.57-.18-2.52-.47-4.59-.83a21.62 21.62 0 01-5.39-1.39c-2.2-1.18-4-2-5.77-3.12a15.84 15.84 0 00-2.89-1.3c-.87-.29-1.52-.45-1.52-.45s.2.33.49.85.68 1.28 1.09 2.09a22.26 22.26 0 011.82 4.9c.05.31.11.65.15 1s.06.69.1 1 .07.71.12 1.06.07.7.12 1.05.13.67.2 1a6.45 6.45 0 00.29.91 3.38 3.38 0 001 1.4c1.78 1.42 5.14 2 6.94 3.63.89.82 3.15 1.41 5.48 1.77a20.74 20.74 0 006.13.19 2.77 2.77 0 00.81-.29c.48.58 1 1.28 1.46 1.83l.73 1a7.25 7.25 0 012.18 1.65 42.43 42.43 0 01.49 6.88c0 .75-.09 1.68-.18 2.72-.05.53-.1 1.08-.16 1.66s-.11 1.18-.19 1.79c-.25 2.47-.6 5.2-.75 7.79-.32 2.46-.55 5.07-.76 7.45a15.81 15.81 0 00-.74-2.73 5.87 5.87 0 00-1.25-2.2 3 3 0 01-.82-1.4 4.91 4.91 0 00.78-1.67 12.35 12.35 0 00.45-2.87 13.92 13.92 0 00-1.87-7.5c-.42-.72-.81-1.35-1.14-1.9s-.62-1-.91-1.46a12 12 0 00-1.48-1.93c-1-1-2.1-1.47-4.42-2.29a16.11 16.11 0 01-3.69-2c-.64-.43-1.28-.89-1.92-1.35s-1.26-.93-1.9-1.38-1.25-.89-1.84-1.29-1.19-.77-1.73-1.08a12 12 0 00-1.55-.75 4.54 4.54 0 00-1.32-.31c-.56 0-.26 1.5.15 3.28.09.44.21.9.31 1.36l.29 1.33a12.94 12.94 0 01.32 2 8.92 8.92 0 001 3.08c.28.63.61 1.29 1 2s.75 1.4 1.16 2.12a76.07 76.07 0 004.46 7.2 11.84 11.84 0 002.18 2.08 18.07 18.07 0 003.11 1.89 16.35 16.35 0 008.13 1.69 7.32 7.32 0 011 3.08c.11 1 .1 1.91.16 2.28a14 14 0 001.9 3.18c-.09.79-.16 1.53-.25 2.2s-.17 1.27-.26 1.79a49.18 49.18 0 01-2.61 8.71c-.53 1.41-1.1 2.71-1.54 3.86a23.82 23.82 0 00-1 2.82 35.61 35.61 0 01-1.92 5.06 8.57 8.57 0 00-.45-1.76c-.44-1.19-.94-2.72-1.29-3.76 1-.94 2-3.41 2.59-6s.64-5.27 0-6.59a10.3 10.3 0 00-2.62-3.46 34.3 34.3 0 00-4.43-3c-1.94-1.18-3.57-2.36-5.08-3.42a26.37 26.37 0 00-4.36-2.59 11.32 11.32 0 01-3.25-2.14 10.93 10.93 0 01-.8-.84l-.27-.33a1 1 0 00-.14.21 4.54 4.54 0 00-.34.76 9.74 9.74 0 00-.37 1.42 17.19 17.19 0 00-.3 2.25 7.06 7.06 0 000 1.38c0 .23.06.46.1.7s.08.47.13.71a12.38 12.38 0 00.44 1.44 13.41 13.41 0 00.58 1.46c.1.24.23.5.35.74s.24.49.37.74c.25.49.53 1 .82 1.48.56 1 1.19 2 1.81 2.94a17.63 17.63 0 011.43 2.65c.35.82.64 1.56.93 2.24a7.72 7.72 0 002.75 3.62c2.83 2.05 6.91 3.91 8.63 4a28.56 28.56 0 001.07 3.17 7 7 0 01.42 1.84 19.7 19.7 0 01.15 2.46c-1.47 3-3.3 6.13-4.7 8.36l3.24 1.56c.24-.41.48-.8.7-1.2l.67-1.17c.44-.77.83-1.52 1.21-2.23l3.1-1.43c1.06-.48 2.07-1 2.94-1.38 2.84 1.43 4.58 2.73 6.32 3.28a5.21 5.21 0 002.73.14 8.62 8.62 0 001.62-.55 14.64 14.64 0 001.9-1.06c1.47-.94 2.62-1.68 3.6-2.27s1.75-1 2.42-1.42 1.22-.7 1.74-1a10.85 10.85 0 001.51-1.24 7.28 7.28 0 001.42-2.08 30.45 30.45 0 001.29-2.93c.22-.53.44-1.08.66-1.64s.45-1.13.69-1.69a28.55 28.55 0 011.68-3.31c.65-1 1.25-2.14 1.84-3.19s1.09-2 1.56-2.94c.9-1.78 1.53-3.07 1.68-3.26s-1.63.29-3.95 1c-1.16.34-2.45.73-3.71 1.12s-2.47.78-3.48 1.13a14.48 14.48 0 00-4.94 3.28c-.74.67-1.47 1.38-2.24 2.07a21.7 21.7 0 01-2.57 2 54.45 54.45 0 01-6.31 3.25l-1.43.68c-.46.21-.88.42-1.25.61a5.14 5.14 0 00-1.54 1.09 4.76 4.76 0 00-.6 1.46c-.09.33-.18.7-.27 1.09s-.19.8-.27 1.21c-.16.83-.33 1.68-.48 2.43s-.26 1.41-.34 1.86c-1.34.49-2.86 1.16-4.26 1.75a92.87 92.87 0 005.6-13.84 71 71 0 001.97-8.62z"/><path class="cls-4" d="M200 375c-95.85 0-174.33-78-175-173.76-.66-96.5 77.3-175.55 173.79-176.24h1.26c95.8 0 174.28 78 175 173.77.66 96.49-77.3 175.54-173.79 176.23zm.1-342.39h-1.21C106.55 33.27 32 108.89 32.61 201.18c.64 91.64 75.7 166.21 167.34 166.21h1.21c92.29-.65 166.86-76.27 166.23-168.57-.64-91.65-75.7-166.21-167.34-166.21z"/><path class="cls-4" d="M200 362c-88.7 0-161.36-72.18-162-160.88C37.36 111.8 109.54 38.61 198.88 38H200c88.71 0 161.37 72.17 162 160.89.62 89.34-71.56 162.53-160.9 163.17zm0-322.13h-1.15c-88.29.62-159.62 73-159 161.25.6 87.67 72.41 159 160.07 159h1.16c88.29-.62 159.62-73 159-161.25-.56-87.67-72.37-159-160.08-159z"/></svg>