<svg id="Layer_1" data-name="Layer 1" xmlns="http://www.w3.org/2000/svg" viewBox="0 0 400 400"><defs><style>.cls-1,.cls-4{fill:#f9693b}.cls-4{font-size:20.92px;font-family:Avenir-Medium,Avenir}</style></defs><path class="cls-1" d="M158.77 308.28a21.07 21.07 0 00-5.52-3 20.43 20.43 0 00-5.8-1.05 48.32 48.32 0 00-12.62 1.52c-4.21 1-8.21 2.18-11.2 3.16s-4.92 1.68-4.92 1.68 1.91 1 5 2.29a56.49 56.49 0 0011.9 3.41 33.4 33.4 0 0014-.32c4.25-1.14 7.93-3.67 9.16-7.69zM145.91 290.5a23.28 23.28 0 007.14 9.16 13 13 0 005.15 2.28 10.4 10.4 0 005.8-.52 17.65 17.65 0 00-3-10.42 32.47 32.47 0 00-7.33-7.52 82 82 0 00-7.74-5.22c-2.14-1.26-3.6-2-3.6-2s0 .45.1 1.25.22 1.89.45 3.24a39.15 39.15 0 003.03 9.75zM115.65 299.86a13.62 13.62 0 0010.56-5.09c-2.09-3.56-5.27-5.49-9.07-6.61a52.54 52.54 0 00-12.58-1.54c-4.35-.12-8.65 0-11.89 0l-5.41.09s.41.43 1.16 1.13 1.84 1.64 3.21 2.71a50.91 50.91 0 0010.88 6.45 30.59 30.59 0 0013.14 2.86zM123.66 284a11.86 11.86 0 009.88 4.58 14.62 14.62 0 00.26-10.92 33.45 33.45 0 00-5.21-9.16c-2-2.69-4.15-5-5.69-6.64-.75-.83-1.4-1.49-1.85-1.94l-.7-.7s-.14.42-.34 1.15-.44 1.81-.67 3.12a32.12 32.12 0 00-.06 10 22.15 22.15 0 004.38 10.51zM72.11 255.25c-3-.89-4.92-1.42-4.92-1.42s.18.47.56 1.26 1 1.89 1.78 3.2 1.71 2.83 2.8 4.41c.54.8 1.13 1.61 1.75 2.42l.47.63.62.77c.41.51.84 1 1.27 1.52a27.36 27.36 0 0012 8.26 13.06 13.06 0 0011.85-1.64c-1-4-3.34-6.74-6.53-9.12-.78-.6-1.66-1.15-2.53-1.72s-1.81-1.11-2.76-1.65-1.91-1.1-2.91-1.64-1.87-.93-2.82-1.36a92.92 92.92 0 00-10.63-3.92zM101.35 262.37a10.38 10.38 0 007.73 7.18 16.58 16.58 0 003.92-10.11 45.77 45.77 0 00-.64-9.18 30.53 30.53 0 00-1-4.51c-.44-1.54-.94-2.92-1.39-4.07s-.88-2.1-1.17-2.76-.42-1-.42-1-.28.38-.73 1.05a32.19 32.19 0 00-1.72 2.86 48.92 48.92 0 00-4 9.49c-.28.94-.53 1.88-.74 2.86a24.6 24.6 0 00-.4 2.75 16.12 16.12 0 00.07 2.78 13.67 13.67 0 00.49 2.66zM67.53 241.19a17.72 17.72 0 002.32 2.18 22.28 22.28 0 002.52 1.79A14.08 14.08 0 0083.9 247a11.17 11.17 0 00-.35-5.52 12.69 12.69 0 00-1.12-2.43c-.46-.79-1-1.53-1.58-2.29-2.25-3-5.73-5.58-9.24-7.87a101.48 101.48 0 00-9.75-5.78l-4.57-2.33s.09.5.31 1.37.63 2.08 1.14 3.53a45.7 45.7 0 004.92 10.37 40.78 40.78 0 003.87 5.14zM90.24 239.63a10.87 10.87 0 003.68 4.08 15 15 0 007.14-8.58 18 18 0 00.69-2.59c.09-.43.16-.87.21-1.31l.21-1.34a31.65 31.65 0 00.24-5.3 79.61 79.61 0 00-.91-9c-.21-1.18-.44-2.14-.59-2.82s-.2-1-.2-1-.35.31-.93.87a31.58 31.58 0 00-2.26 2.43 47.66 47.66 0 00-5.82 8.51 24.8 24.8 0 00-2.78 10.95 9.32 9.32 0 00.37 2.65 11.17 11.17 0 00.95 2.45zM60.23 208.23a21.83 21.83 0 001.77 2.64 22.89 22.89 0 002.12 2.26 13.84 13.84 0 0011 4 11 11 0 00.76-5.46 12.34 12.34 0 00-.61-2.59 17.55 17.55 0 00-1-2.54A24.88 24.88 0 0071 201.6l-2-2.37c-.67-.78-1.37-1.54-2.07-2.28-2.85-3-6-5.75-8.2-7.79s-3.84-3.33-3.84-3.33-.06 2.07.13 5.2a51 51 0 00.82 5.3c.2 1 .42 2 .67 3a23.65 23.65 0 00.93 3.05 39.81 39.81 0 002.79 5.85zM85.43 214.88a15.69 15.69 0 008.75-7 19.87 19.87 0 001.2-2.34 23.84 23.84 0 001.06-2.45 29.6 29.6 0 001.34-5c.32-1.63.68-3.21.85-4.67.09-.75.16-1.44.21-2.11s.07-1.28.15-1.85a31.28 31.28 0 00.23-3.77 43.07 43.07 0 00-3.91 2.41c-.57.41-1.19.84-1.83 1.33a24 24 0 00-2 1.6 42.56 42.56 0 00-3.81 3.97c-.62.74-1.22 1.51-1.8 2.3-.28.4-.56.81-.82 1.21s-.47.83-.68 1.26a19.87 19.87 0 00-1.89 5.23 12.63 12.63 0 00-.28 2.65 12.92 12.92 0 00.43 2.56 10.59 10.59 0 002.8 4.67zM70.33 164.84c-1-1.78-2-3.53-3-5.13s-2-3.1-2.8-4.35c-1.63-2.5-2.83-4.13-2.83-4.13s-.61 2-1.26 5a60.21 60.21 0 00-.62 5.33c-.08 1-.14 2-.17 3s.08 2.12.17 3.2a35.59 35.59 0 001.05 6.37 24.44 24.44 0 002.55 5.68 13.14 13.14 0 009.71 6.32 11.92 11.92 0 001.3-2.53 13.56 13.56 0 00.73-2.57 13.17 13.17 0 00-.27-5.32 27.23 27.23 0 00-1.78-5.47c-.84-1.77-1.85-3.62-2.78-5.4zM93.82 180.65a21.69 21.69 0 003.34-4 30.33 30.33 0 002.65-4.35c.38-.73.67-1.46 1-2.17s.68-1.4 1-2.07c.58-1.33 1-2.58 1.39-3.64a34.63 34.63 0 001.23-3.54 43.33 43.33 0 00-4.42 1.35 39.89 39.89 0 00-9.21 4.69 26.23 26.23 0 00-2.35 1.77c-.72.64-1.41 1.31-2.06 2a19.77 19.77 0 00-3.24 4.57 12.39 12.39 0 00-1.15 5.05 8.39 8.39 0 00.37 2.56 10.69 10.69 0 001.25 2.51 17 17 0 0010.2-4.73zM81.08 153.9a11.22 11.22 0 001.41-2.29 12 12 0 00.81-2.5 25.42 25.42 0 00.34-2.66 23.76 23.76 0 00-.31-5.71 59.65 59.65 0 00-1.19-5.89c-1.06-3.94-2.21-7.64-3.23-10.47s-1.73-4.63-1.73-4.63-.28.43-.73 1.21-1 1.92-1.68 3.32a47.79 47.79 0 00-3.65 10.86 39.31 39.31 0 00-.59 6.37 17 17 0 00.25 3.11 20.11 20.11 0 00.68 2.95 13.44 13.44 0 002.74 5 13 13 0 004.94 3.43 11.49 11.49 0 001.94-2.1zM115.49 138.91c.37-.56.56-.88.56-.88h-1.29c-.83 0-2 .11-3.35.28s-3 .41-4.76.79c-.86.19-1.79.41-2.69.66s-1.79.58-2.69.93a29.42 29.42 0 00-5.3 2.56 21.56 21.56 0 00-4.3 3.61 10.2 10.2 0 00-1.5 2.18 11.67 11.67 0 00-1 2.39 9.44 9.44 0 00-.33 2.55 9.92 9.92 0 00.53 2.71 16.24 16.24 0 006-.14 19.26 19.26 0 007.4-3.32c.36-.24.7-.52 1-.79s.7-.54 1-.82a30.32 30.32 0 003.66-3.58 38.51 38.51 0 003.07-3.63l.64-.87.63-.82c.41-.54.78-1.05 1.11-1.52.76-.91 1.25-1.72 1.61-2.29zM92.9 128.46a11.88 11.88 0 004.33-3.46 13.24 13.24 0 002.41-4.71c1.13-3.46 1.31-7.57 1.27-11.55 0-1-.07-2-.13-3s-.09-1.91-.16-2.82c-.15-1.84-.34-3.55-.51-5-.32-2.89-.66-4.82-.66-4.82s-.34.38-1 1a36.27 36.27 0 00-2.38 2.82 48.65 48.65 0 00-3 4.29 49.29 49.29 0 00-2.92 5.36 35.93 35.93 0 00-2.06 6 22.86 22.86 0 00-.57 6 12.7 12.7 0 005.38 9.89zM123.38 126.36c1.4-1 2.73-2 3.88-2.94s2.25-1.87 3.1-2.68 1.58-1.49 2.07-2 .74-.76.74-.76a43.53 43.53 0 00-4.64-.65c-1.41-.14-3-.19-4.83-.19a36.9 36.9 0 00-5.65.42 24.91 24.91 0 00-10.82 3.92 13 13 0 00-3.54 3.86 9.7 9.7 0 00-1.12 5.15 16.93 16.93 0 0011.32.57 24 24 0 005-2 33.85 33.85 0 004.49-2.7z"/><path class="cls-1" d="M115.61 283.41c11.48 9.06 25.46 15.26 39.18 20.55 11.24 4.32 25.65 11.38 40.32 18a306.72 306.72 0 01-36.67 8.78c-1.37.22 5.67 7 7 6.66 12.15-3.48 24.49-7.71 36.63-12.38 13.28 5.74 26.39 10.67 37.19 12.39 1.36.22 5.58-6.67 4.22-6.89a277.27 277.27 0 01-34.48-8.25c20.38-8.15 40-17.38 57-26.17 18.42-9.56 32.24-23.12 41.33-41.16 8.42-16.7 14.36-35.16 15.23-53.71 1.21-25.69-7.84-50.89-21.88-72.55a165.85 165.85 0 00-13.81-18.53 10.28 10.28 0 00.21-4.72 12.7 12.7 0 00-2.17-5c-2.15-3.12-5.6-5.62-9.15-7.5a43.44 43.44 0 00-10-3.65c-1.39-.33-2.54-.51-3.33-.62-.4 0-.72-.08-.93-.09h-.3s.05.09.13.26l.4.78c.37.68.89 1.64 1.55 2.81a92.35 92.35 0 005.24 8.35 44.7 44.7 0 003.46 4.31 23.22 23.22 0 002 1.88 19.26 19.26 0 002.1 1.65 15.74 15.74 0 004.83 2.18 15 15 0 004.25.37 156.69 156.69 0 0123.89 36.7 115.32 115.32 0 0111.48 52.21c-.49 19.61-7.36 39.51-16.58 56.93a85 85 0 01-31 32.84c-12 7.37-25.1 12.91-38.13 18.28-9.78 4-21.38 8.17-33.14 11.84-25.2-8-51.52-18.85-69.78-28.68a92.38 92.38 0 01-25.32-19.35C99.31 264 94.16 254.6 90 245c-7.84-18.24-12.8-37.12-11.59-56.95 1.43-23.1 11-45.22 24.23-64.38a165.25 165.25 0 0111.12-14.43 14.86 14.86 0 004.1-.36 15.87 15.87 0 004.81-2.18 18.45 18.45 0 002.11-1.65 27 27 0 002-1.89 46.25 46.25 0 003.47-4.3 96.74 96.74 0 005.23-8.37c.65-1.15 1.18-2.12 1.54-2.8l.41-.78a2.69 2.69 0 00.11-.26h-.29l-.91.1c-.81.11-2 .3-3.34.63A42.9 42.9 0 00123 91c-3.54 1.88-7 4.38-9.15 7.49a12.78 12.78 0 00-2.17 5 10.26 10.26 0 00.19 4.62 159.52 159.52 0 00-23.17 35.06 120.8 120.8 0 00-12.57 48.19c-.77 19.2 4.7 37.59 12.27 55.19 6.08 14.15 14.77 27.03 27.21 36.86z"/><path class="cls-1" d="M263.1 318.27a55.73 55.73 0 0011.9-3.41 53.52 53.52 0 005-2.29s-1.95-.74-4.92-1.69-7-2.17-11.2-3.16a49.22 49.22 0 00-12.62-1.51 20.36 20.36 0 00-5.8 1 21.12 21.12 0 00-5.52 3c1.24 4 4.92 6.54 9.26 7.71a33.18 33.18 0 0013.9.35zM240.47 303.89a13.25 13.25 0 005.15-2.28 23.37 23.37 0 007.13-9.15 39.4 39.4 0 003-9.78c.23-1.35.37-2.47.45-3.25s.09-1.24.09-1.24-1.46.75-3.59 2a80.39 80.39 0 00-7.73 5.21 32.8 32.8 0 00-7.35 7.53 17.56 17.56 0 00-3 10.41 10.14 10.14 0 005.85.55zM294.11 288.58a52 52 0 00-12.58 1.53c-3.8 1.13-7 3.05-9.07 6.6A13.52 13.52 0 00283 301.8a30.79 30.79 0 0013.16-2.8 50.17 50.17 0 0010.87-6.5c1.38-1.06 2.47-2 3.23-2.72s1.15-1.11 1.15-1.11l-5.41-.08c-3.23-.04-7.54-.13-11.89-.01zM265.13 290.55A11.75 11.75 0 00275 286a21.91 21.91 0 004.39-10.49 31.48 31.48 0 00-.07-10 30.81 30.81 0 00-.66-3.12c-.21-.74-.35-1.16-.35-1.16s-.26.25-.69.7-1.1 1.12-1.85 1.95a87.3 87.3 0 00-5.69 6.64 33.59 33.59 0 00-5.22 9.16 14.65 14.65 0 00.27 10.87zM322.23 270c.43-.49.86-1 1.27-1.51l.61-.78.48-.62c.62-.81 1.2-1.63 1.75-2.42 1.09-1.58 2-3.1 2.81-4.41s1.36-2.42 1.76-3.19.57-1.27.57-1.27-1.93.54-4.92 1.42a94.14 94.14 0 00-10.66 3.92c-.95.42-1.89.86-2.82 1.36s-2 1.08-2.91 1.63-1.89 1.08-2.76 1.66-1.75 1.12-2.53 1.72c-3.18 2.37-5.55 5.1-6.53 9.12a13 13 0 0011.85 1.63 27.28 27.28 0 0012.03-8.26zM296.84 253.22a49 49 0 00-4-9.48 33.15 33.15 0 00-1.72-2.86c-.45-.67-.74-1-.74-1s-.16.37-.41 1-.72 1.6-1.17 2.76-.95 2.53-1.4 4.06a34 34 0 00-1 4.51 46.56 46.56 0 00-.64 9.19 16.63 16.63 0 003.89 10.11 10.4 10.4 0 007.73-7.19 15.06 15.06 0 00.59-2.68 18.71 18.71 0 00.06-2.8 22.78 22.78 0 00-.41-2.75c-.27-.97-.51-1.93-.78-2.87zM341.07 224.11c.23-.87.31-1.37.31-1.37l-4.58 2.33a103.23 103.23 0 00-9.73 5.77c-3.53 2.3-7 4.89-9.25 7.88-.54.75-1.12 1.5-1.58 2.29a12.11 12.11 0 00-1.12 2.43 11.08 11.08 0 00-.35 5.53 14.23 14.23 0 0011.53-1.86 22.39 22.39 0 002.53-1.79 18.29 18.29 0 002.31-2.18A39.84 39.84 0 00335 238a45.42 45.42 0 004.92-10.36c.52-1.45.91-2.64 1.15-3.53zM304.74 245.66a11 11 0 003.69-4.08 11.69 11.69 0 00.95-2.46 10.68 10.68 0 00.38-2.66 24.9 24.9 0 00-2.8-11 47.55 47.55 0 00-5.81-8.5c-.89-1-1.65-1.86-2.25-2.43s-.94-.88-.94-.88-.09.38-.2 1.05-.38 1.63-.59 2.81a80.32 80.32 0 00-.91 9 31.67 31.67 0 00.23 5.3c.08.45.15.9.22 1.34s.13.87.21 1.31a17.64 17.64 0 00.69 2.59 15 15 0 007.13 8.61zM331.72 198.89c-.71.73-1.41 1.51-2.07 2.29l-2 2.36a25.58 25.58 0 00-3.2 4.91 18.5 18.5 0 00-1 2.54 11.94 11.94 0 00-.6 2.6 11 11 0 00.74 5.46 13.84 13.84 0 0011-4 20.87 20.87 0 002.13-2.26 26.6 26.6 0 001.74-2.63 42 42 0 002.75-5.88 23.31 23.31 0 00.93-3.06c.25-1 .47-2 .67-3a51.32 51.32 0 00.82-5.32c.19-3.12.13-5.18.13-5.18s-1.6 1.28-3.85 3.32-5.34 4.85-8.19 7.85zM316 212.19a11.07 11.07 0 00.44-2.56 12.89 12.89 0 00-.28-2.67 20.36 20.36 0 00-1.89-5.22c-.21-.42-.44-.84-.67-1.25s-.55-.82-.83-1.21a34.68 34.68 0 00-1.8-2.31 44 44 0 00-3.86-3.95c-.63-.57-1.29-1.1-1.95-1.59s-1.27-.93-1.84-1.33a43.22 43.22 0 00-3.91-2.42 33.16 33.16 0 00.24 3.78c.08.57.11 1.19.15 1.85s.12 1.36.22 2.1c.16 1.46.52 3 .84 4.67a29 29 0 001.34 5 21.83 21.83 0 001.06 2.45 20.68 20.68 0 001.2 2.34 15.71 15.71 0 008.74 7 10.66 10.66 0 002.8-4.68zM323.82 177.73a13.16 13.16 0 00-.29 5.32 14.62 14.62 0 00.74 2.57 11.69 11.69 0 001.3 2.53 13.18 13.18 0 009.71-6.32 25.26 25.26 0 002.55-5.68 35.75 35.75 0 001.06-6.37c.08-1.07.16-2.16.16-3.2s-.09-2.06-.16-3c-.16-2-.39-3.79-.62-5.34-.66-3-1.28-5-1.28-5s-1.19 1.63-2.83 4.15l-2.79 4.33c-1 1.62-2.07 3.35-3 5.14s-1.95 3.63-2.75 5.46a26.45 26.45 0 00-1.8 5.41zM315.53 177.19a19.22 19.22 0 00-3.24-4.56c-.65-.7-1.34-1.36-2.06-2a25.09 25.09 0 00-2.34-1.76 39.57 39.57 0 00-9.21-4.7c-2.65-.94-4.43-1.36-4.43-1.36a31 31 0 001.23 3.54c.38 1.06.8 2.32 1.39 3.66.29.67.61 1.36 1 2.06s.64 1.44 1 2.16a31.35 31.35 0 002.65 4.36 22.09 22.09 0 003.34 4 17 17 0 0010.2 4.73 10.69 10.69 0 001.25-2.51 8.37 8.37 0 00.37-2.57 12.63 12.63 0 00-1.15-5.05zM321.49 121.7s-.71 1.81-1.73 4.63-2.16 6.53-3.23 10.47a58.51 58.51 0 00-1.19 5.89 23.74 23.74 0 00-.31 5.71 25.77 25.77 0 00.34 2.66 12.59 12.59 0 00.81 2.5 11.5 11.5 0 001.41 2.29 12.56 12.56 0 001.93 2.11 13.09 13.09 0 005-3.42 13.43 13.43 0 002.75-5 21 21 0 00.67-2.94 17.13 17.13 0 00.25-3.12 39.41 39.41 0 00-.59-6.37 47.63 47.63 0 00-3.65-10.86c-.66-1.38-1.25-2.53-1.67-3.32s-.79-1.23-.79-1.23zM308.51 151a10.3 10.3 0 00-1.52-2.18 21.59 21.59 0 00-4.29-3.62 29.62 29.62 0 00-5.29-2.55c-.92-.35-1.82-.66-2.71-.92s-1.82-.48-2.68-.67c-1.76-.38-3.37-.63-4.75-.8s-2.53-.25-3.36-.27-1.3 0-1.3 0l.57.88c.36.56.85 1.38 1.51 2.32.33.48.7 1 1.11 1.52l.64.82.63.87a40.07 40.07 0 003.07 3.63 28.85 28.85 0 003.66 3.57c.34.29.7.56 1 .83s.68.53 1 .79a20.68 20.68 0 002.24 1.42 18.75 18.75 0 005.16 1.9 16.08 16.08 0 006 .13 10.48 10.48 0 00.53-2.71 9.84 9.84 0 00-.34-2.54 11.64 11.64 0 00-.88-2.42zM305.77 130.4a12.66 12.66 0 005.36-9.91 22.71 22.71 0 00-.57-6 34.62 34.62 0 00-2.07-6 48.49 48.49 0 00-2.91-5.36 50.28 50.28 0 00-3-4.27 33.37 33.37 0 00-2.41-2.86l-.95-1s-.34 1.93-.65 4.82c-.19 1.47-.37 3.18-.51 5-.08.92-.14 1.86-.18 2.83s-.11 2-.12 3a37.34 37.34 0 001.24 11.56 13.12 13.12 0 002.43 4.71 11.58 11.58 0 004.34 3.48zM291.44 123.46a25.05 25.05 0 00-10.82-3.93 39.71 39.71 0 00-5.66-.41c-1.79 0-3.41.06-4.81.18-2.83.28-4.65.65-4.65.65s.26.28.75.77 1.21 1.14 2.06 2 1.93 1.72 3.09 2.69a47.54 47.54 0 003.89 2.94 33.85 33.85 0 004.5 2.73 24 24 0 005 2 16.75 16.75 0 0011.32-.57 9.84 9.84 0 00-1.12-5.15 13.05 13.05 0 00-3.55-3.9zM199.34 48.7l6 12.16 13.42 1.95-9.71 9.46 2.29 13.37-12-6.31-12.01 6.31 2.3-13.37-9.72-9.46 13.42-1.95 6.01-12.16zM168.58 88.22l-5.27-7.89 3.51-8.82-9.13 2.57-7.3-6.07-.38 9.49-8.03 5.08 8.91 3.28 2.34 9.2 5.88-7.46 9.47.62zM230.09 88.22l5.27-7.89-3.51-8.82 9.14 2.57 7.29-6.07.38 9.49 8.03 5.08-8.91 3.28-2.34 9.2-5.88-7.46-9.47.62z"/><path class="cls-1" d="M200 374c-95.81 0-174.31-77.95-175-173.74C24.34 103.75 102.29 24.69 198.76 24H200c95.81 0 174.31 77.94 175 173.74.66 96.51-77.28 175.57-173.76 176.26zm0-342.39h-1.21C106.53 32.27 32 107.9 32.61 200.21c.64 91.62 75.72 166.17 167.37 166.18h1.21c92.28-.66 166.84-76.29 166.2-168.6-.64-91.63-75.72-166.18-167.39-166.18z"/><path class="cls-1" d="M66.86 280.05A154.75 154.75 0 0144 200.11c-.6-86 68.88-156.47 154.88-157.08H200c85.4 0 155.35 69.47 155.94 154.87a155 155 0 01-22.79 82.16h2.24a157 157 0 0022.46-82.18C357.28 111.44 286.47 41.12 200 41.12h-1.14c-87 .62-157.37 71.95-156.77 159a156.59 156.59 0 0022.54 79.92z"/><text transform="translate(137.36 164.26)" font-size="41.85" font-family="Avenir-Black,Avenir" fill="#f9693b">9-D<tspan x="68.92" y="0" letter-spacing="-.07em">A</tspan><tspan x="96.83" y="0">Y</tspan><tspan x="12.76" y="49.46">TEST</tspan><tspan x="6.59" y="98.91">OWN</tspan></text><text class="cls-4" transform="matrix(.62 .8 -.79 .61 66.48 292.98)">S</text><text class="cls-4" transform="rotate(47.4 -307.956 235.836) scale(1.01 1)">A</text><text class="cls-4" transform="matrix(.7371 .6905 -.68366 .7298 83.3 312.9)">T</text><text class="cls-4" transform="rotate(39.81 -397.587 288.565) scale(1.01 1)">I</text><text class="cls-4" transform="rotate(36.57 -443.96 310.24) scale(1.01 1)">S</text><text class="cls-4" transform="matrix(.85 .54 -.53 .85 107.46 332.99)">F</text><text class="cls-4" transform="matrix(.89 .47 -.46 .89 117.3 339.26)">A</text><text class="cls-4" transform="rotate(22.08 -822.38 509.638) scale(1.01 1)">C</text><text class="cls-4" transform="rotate(17.07 -1100.852 661.839) scale(1.01 1)">T</text><text class="cls-4" transform="matrix(.98 .24 -.24 .97 157.9 355.91)">I</text><text class="cls-4" transform="rotate(9.4 -2092.98 1177.548) scale(1.01 1)">O</text><text class="cls-4" transform="matrix(1.01 .05 -.05 1 182.55 360.61)">N</text><text class="cls-4" transform="rotate(-1 20802.153 -11277.627) scale(1.01 1)"></text><text class="cls-4" transform="matrix(1.0061 -.08873 .08785 .99613 206.49 361.38)">G</text><text class="cls-4" transform="matrix(.99 -.19 .19 .98 223.74 359.78)">U</text><text class="cls-4" transform="rotate(-16.29 1366.07 -657.143) scale(1.01 1)">A</text><text class="cls-4" transform="matrix(.94 -.37 .37 .93 254.22 352.32)">R</text><text class="cls-4" transform="matrix(.9 -.45 .45 .89 266.98 347.31)">A</text><text class="cls-4" transform="matrix(.85 -.54 .54 .84 281.09 340.24)">N</text><text class="cls-4" transform="matrix(.8 -.62 .61 .79 295.9 330.64)">T</text><text class="cls-4" transform="matrix(.74 -.68 .67 .74 306.03 322.77)">E</text><text class="cls-4" transform="rotate(-47.19 516.951 -205.072) scale(1.01 1)">E</text><text class="cls-4" transform="matrix(.61 -.8 .79 .61 325.44 303.48)">D</text></svg>