<svg id="Layer_1" data-name="Layer 1" xmlns="http://www.w3.org/2000/svg" viewBox="0 0 400 400"><defs><style>.cls-3,.cls-4{fill:#f9693b}.cls-3{font-family:Avenir-Black,Avenir;font-size:29.4px}</style></defs><text transform="translate(147.92 190.26)" font-family="Avenir-Black,Avenir" fill="#f9693b" font-size="58">100<tspan x="-8.64" y="65">D</tspan><tspan x="35.38" y="65" letter-spacing="-.07em">A</tspan><tspan x="74.07" y="65">Y</tspan></text><text class="cls-3" transform="rotate(-26.31 242.028 -215.303) scale(1.01 1)">W</text><text class="cls-3" transform="rotate(-16.95 316.775 -452.838) scale(1.01 1)">A</text><text class="cls-3" transform="matrix(.99 -.16 .16 .99 166.19 66.52)">R</text><text class="cls-3" transform="matrix(1.01 -.04 .04 1 184.54 63.48)">R</text><text class="cls-3" transform="matrix(1.00568 .0933 -.09237 .99572 203.09 62.63)">A</text><text class="cls-3" transform="matrix(.98 .24 -.24 .97 224.29 64.46)">N</text><text class="cls-3" transform="matrix(.93933 .37115 -.36748 .93003 247.08 70.29)">T</text><text class="cls-3" transform="rotate(28.31 -19.958 558.295) scale(1.01 1)">Y</text><path class="cls-4" d="M104.2 271.71l-.38-.54c-.24-.33-.53-.77-.81-1.22-.57-.91-1.14-1.79-1.14-1.79a22.17 22.17 0 01.79-5.24 6.18 6.18 0 005.75-4.12c.58-1.55.47-4 .35-6.24-.06-1.13-.19-2.21-.32-3.12s-.17-1.66-.23-2.11c-1.72 1.12-8.09 5.69-9.24 8.85a5 5 0 00.17 4.26 6.35 6.35 0 002.11 2.13c-.3.78-.71 1.78-1.13 2.73l-.9-1.58c-.54-1-1.31-2.21-2-3.52s-1.32-2.61-1.83-3.6c-.24-.48-.44-.9-.56-1.19s-.2-.47-.2-.47l-1.74-3.88a25.43 25.43 0 011.66-5 6.17 6.17 0 006.33-3.11 16.84 16.84 0 001.35-5.78c.09-1.22.18-2.36.25-3.33s.08-1.76.08-2.23c-1.89.81-8.81 4.24-10.57 7.2a5.12 5.12 0 00-.7 1.92 5.34 5.34 0 001.9 4.76c-.41.71-1 1.62-1.52 2.49l-.4-1c-.22-.61-.58-1.41-.84-2.26-.56-1.66-1.11-3.33-1.11-3.33l-.4-1.39c-.18-.67-.38-1.34-.38-1.34l-1.15-4.11a25.27 25.27 0 012.4-4.72 6.15 6.15 0 006.71-2.11 17.44 17.44 0 002.26-5.83c.52-2.2 1-4.28 1.07-5.14-2 .51-9.33 2.85-11.51 5.52a5.17 5.17 0 00.21 6.79c-.53.63-1.2 1.45-1.89 2.24l-.4-1.78c-.27-1.08-.47-2.53-.74-4s-.52-2.88-.63-4-.22-1.82-.22-1.82-.13-1.05-.27-2.13c-.07-.53-.1-1.06-.13-1.45v-.68a25.81 25.81 0 013.08-4.25 6.15 6.15 0 007-1 14.92 14.92 0 003-5.1 41 41 0 002-5.21c-2 .2-9.64 1.31-12.19 3.58a6.07 6.07 0 00-1.31 1.61 5.61 5.61 0 00.39 5.13L84 212.13s0-.43-.08-1.09 0-1.53 0-2.41l-.1-3.52.09-2.81s0-1.06.05-2.13S84 198 84 198a23.79 23.79 0 013.68-3.76 6.13 6.13 0 007 .05 15.67 15.67 0 003.92-4.84 49.23 49.23 0 002.58-4.56c-2-.13-9.73-.17-12.6 1.7a4.73 4.73 0 00-2.31 3.55 6.57 6.57 0 00.41 3c-.69.44-1.57 1-2.46 1.56 0 0 0-.74.15-1.84s.33-2.55.51-4 .44-2.9.64-4 .31-1.8.31-1.8 0-.26.12-.67.15-.91.28-1.42l.48-2.09A21 21 0 0191 175.8a6.19 6.19 0 007 1.24 8.91 8.91 0 002.22-1.58c.74-.7 1.47-1.5 2.23-2.31 1.59-1.78 2.9-3.58 3.49-4.3a49.7 49.7 0 00-6-.92c-2.55-.23-5.19-.18-6.74.49a5.53 5.53 0 00-1.71 1.13 4.33 4.33 0 00-1.32 2.71 6.7 6.7 0 00.11 2.28c-.77.32-1.76.73-2.73 1.11 0 0 .47-1.69 1-3.39.24-.84.46-1.69.67-2.31l.35-1 .9-2.66.17-.54c0-.12.09-.24.13-.37a1.59 1.59 0 00.07-.2c.1-.29.21-.6.33-.9.39-1 .79-2 .79-2a21.21 21.21 0 014.63-2.42 6.21 6.21 0 006.69 2.27c3.13-.95 7.76-5.74 9.07-6.91-1.9-.76-9.29-3.26-12.5-2.33a4.82 4.82 0 00-3.33 2.64 6.41 6.41 0 00-.47 3c-.8.21-1.84.47-2.86.68 0 0 .29-.66.75-1.67s1-2.35 1.67-3.66 1.33-2.61 1.82-3.58.86-1.62.86-1.62l2.12-3.71a23.44 23.44 0 015-1.6 6.19 6.19 0 006.21 3.35 16.33 16.33 0 005.42-2.33l2.81-1.74c.82-.53 1.48-1 1.84-1.25-1.75-1.06-8.57-4.7-12-4.4a5.39 5.39 0 00-1.95.57 5.25 5.25 0 00-2.69 4.36c-.82.07-1.87.17-2.9.22 0 0 .23-.38.58-.93s.8-1.31 1.32-2c1-1.44 2-2.87 2-2.87l.8-1.14c.42-.56.86-1.1.86-1.1l1.17-1.5 1.45-1.86a25 25 0 015.19-.83 6.19 6.19 0 005.65 4.23 16.69 16.69 0 006-1.59 50.22 50.22 0 004.74-2.18c-1.57-1.3-7.77-5.9-11.18-6.1a4.69 4.69 0 00-3.93 1.51 5.71 5.71 0 00-1.38 2.64c-.83 0-1.89-.11-2.91-.21l1.19-1.38c.72-.83 1.75-1.87 2.74-2.94l1.48-1.56c.49-.47 1-.91 1.34-1.29l1.33-1.27s.75-.74 1.53-1.47l1.61-1.4a21.71 21.71 0 015.22 0 6.25 6.25 0 004.9 5.12 8.74 8.74 0 002.72 0c1-.13 2.08-.35 3.16-.54s2.27-.55 3.19-.82 1.71-.47 2.14-.61c-1.35-1.55-6.76-7.18-10-7.87a5.73 5.73 0 00-2-.09 4.66 4.66 0 00-1.54.51 5 5 0 00-1.11.91 6.68 6.68 0 00-1.23 1.9c-.81-.19-1.85-.45-2.85-.73 0 0 1.37-1.07 2.73-2.16s2.78-2.11 2.78-2.11l2.27-1.64.54-.38a5.19 5.19 0 01.35-.4l.11-.09.27-.17.13-.08c.07 0 .14-.08.2-.13l1.79-1.15a21.76 21.76 0 015.17.79 6.24 6.24 0 004.09 5.79c1.54.59 3.93.46 6.19.35 1.12-.07 2.19-.2 3.08-.32s1.65-.18 2.09-.24c-1.09-1.75-5.64-8.16-8.78-9.31a4.78 4.78 0 00-4.22.18 6.16 6.16 0 00-2.1 2.13c-.77-.31-1.77-.72-2.73-1.15l1.59-.9c.95-.54 2.19-1.33 3.49-2 .73-.37 6.69-3.54 11.71-6.22a5.58 5.58 0 006.63 1.82c3.19-1.28 7.79-7.5 8.95-9.21-2-.39-9.61-1.64-12.78-.31a5.84 5.84 0 00-3.45 6.51c-2.42 1-4.74 1.93-5.55 2.3-1.33.62-6.8 2.45-6.8 2.45.15-1 .37-2.1.56-2.93a7.1 7.1 0 003.06-.68 5.52 5.52 0 003-3.34c.6-1.65.59-4.42.42-7s-.54-5.06-.72-6.1c-.48.33-1.28.88-2.22 1.58s-2 1.64-3 2.59c-2.1 1.89-4 4.2-4.53 5.9-1.19 3.72 1.34 5.78 2.59 6.62-.27.74-.62 1.64-1 2.56a21.41 21.41 0 01-1.09 2.47l-1.15.67c-.69.4-1.62.9-2.52 1.5l-3.56 2.31a7 7 0 00-.63.41c-.36.26-.85.61-1.35 1L130 108l-.87.63v-1.77c0-.57.05-.84.08-1.21a7.07 7.07 0 002.93-1.13 5.68 5.68 0 002.45-3.74c.68-3.47-1.58-10.92-2.22-12.93-.44.39-1.15 1.05-2 1.89s-1.73 1.91-2.62 3c-1.81 2.17-3.31 4.75-3.61 6.5 0 .22-.06.41-.08.6a5.6 5.6 0 003.62 5.56 47.92 47.92 0 01-1.31 5.28s-.51.42-1.29 1-1.76 1.47-2.74 2.33-2 1.71-2.7 2.38l-1.18 1.13-2.11 2c-.54.49-1 1-1.42 1.44l-.64.66c-.18-1-.31-2.13-.38-3a7.54 7.54 0 002.74-1.56 5.91 5.91 0 001.79-4.13c.15-3.46-3.35-10.52-4.31-12.39a55.13 55.13 0 00-3.72 5.61c-1.33 2.52-2.52 5.19-2.49 7a5.51 5.51 0 004.48 5.49 37.76 37.76 0 01-.44 5.42s-.37.39-.88 1-1.21 1.42-1.91 2.22-1.4 1.62-1.87 2.27-.82 1.05-.82 1.05l-1.47 1.9c-.38.47-.73.95-1 1.33l-.43.61-.61.88c-.19-.57-.36-1.15-.51-1.71l-.3-1.18a8.22 8.22 0 002.47-2 5.76 5.76 0 001.15-4.35c-.33-3.44-4.82-9.9-6-11.6a50.63 50.63 0 00-2.86 6.1c-1 2.69-1.77 5.49-1.45 7.31 0 .22.08.41.11.6a5.56 5.56 0 005.14 4.17 38.86 38.86 0 01.34 5.42l-2.81 4.42-2.61 4.56-.45.81c-.26.48-.58 1.14-.92 1.8l-1.34 2.62c-.47-.92-.91-1.91-1.23-2.7a7.1 7.1 0 002.08-2.36 5.71 5.71 0 00.47-4.47c-1-3.39-6.36-8.95-7.86-10.44-.2.54-.53 1.47-.88 2.6s-.66 2.51-1 3.89c-.62 2.77-.77 5.75-.24 7.46 1.19 3.71 4.43 3.88 5.94 3.83a48.88 48.88 0 011.24 5.3s-.22.47-.54 1.21-.78 1.71-1.16 2.71c-.77 2-1.56 4-1.56 4a7.49 7.49 0 00-.25.71c-.16.43-.34 1-.54 1.58l-.74 2.39-.35 1c-.34-.49-.67-1-1-1.46l-.63-1a7.17 7.17 0 001.71-2.65 5.73 5.73 0 00-.19-4.48c-1.46-3.22-7.64-7.93-9.32-9.15-.6 2.25-1.67 10.89 0 14.1a5.25 5.25 0 00.29.53 5.49 5.49 0 006.14 2.36 46.3 46.3 0 012 5s-.19.64-.45 1.58-.57 2.23-.86 3.52-.59 2.56-.81 3.52-.3 1.62-.3 1.62l-.52 2.9a35.34 35.34 0 00-.44 2.92c-.75-.74-1.5-1.55-2.06-2.18a7.27 7.27 0 001.33-2.9 6.07 6.07 0 00-1-4.4c-1.89-2.89-8.83-6.53-10.71-7.47a60.89 60.89 0 00.24 6.75c.39 2.84 1 5.71 2.07 7.18a5.47 5.47 0 006.84 1.76 33.54 33.54 0 012.81 4.66s-.07.52-.14 1.32-.14 1.87-.24 2.93-.15 2.14-.22 2.94 0 1.35 0 1.35l-.13 4.83v1.07c-.49-.34-1-.72-1.42-1.07s-.64-.54-.91-.78a7.46 7.46 0 00.86-3.06 6 6 0 00-1.58-4.19c-2.3-2.59-9.71-5.15-11.7-5.79a58.81 58.81 0 001.25 6.63c.78 2.75 1.87 5.48 3.09 6.76a5.66 5.66 0 00.43.42 5.5 5.5 0 006.58.32 36.77 36.77 0 013.47 4.18v1.65c0 .99.18 2.29.27 3.6s.17 2.62.32 3.6l.2 1.63.52 2.95c.22 1.44.49 2.91.49 2.91-.93-.47-1.87-1-2.61-1.44a6.14 6.14 0 00-1.91-7.06c-2.65-2.17-10.36-3.48-12.41-3.79A47.81 47.81 0 0068 220c1.22 2.58 2.62 5.11 4.13 6.17a5.47 5.47 0 007-.42 34.35 34.35 0 014.05 3.56s.48 2.09.95 4.18c.23 1.05.47 2.08.71 2.86l.37 1.28.64 2.32c.16.58.33 1.16.48 1.59s.24.72.24.72l.34 1c-.56-.17-1.14-.37-1.67-.57l-1.13-.46A8 8 0 0084 239a5.8 5.8 0 00-2.8-3.5c-3-1.75-10.77-1.89-12.85-1.89a48.14 48.14 0 003.19 5.93c1.6 2.37 3.36 4.68 5 5.49.18.1.36.18.54.26a5.51 5.51 0 006.36-1.74A34.78 34.78 0 0188 246.5s1 2.45 1.91 4.9c.49 1.22 1 2.4 1.44 3.31l.67 1.5s.15.35.38.84.58 1.16.9 1.82l1.34 2.63c-1-.15-2.08-.38-2.9-.58a7.21 7.21 0 00-.68-3.08 5.49 5.49 0 00-3.3-3c-1.65-.62-4.38-.6-6.94-.45a60.36 60.36 0 00-6 .73c.31.48.87 1.29 1.57 2.24s1.61 2 2.55 3.08c1.86 2.11 4.15 4 5.84 4.58 3.68 1.19 5.72-1.35 6.55-2.62.73.27 1.63.62 2.54 1a21.56 21.56 0 012.45 1.11l.65 1.17c.41.68.9 1.64 1.49 2.52l2.28 3.62.41.63 1 1.35c.7 1 1.39 2 1.39 2l2.37-1.75z"/><path class="cls-4" d="M287 277c-1.07 1.37-2.14 2.76-2.14 2.76-.29-1-.54-2.06-.73-2.88a6.43 6.43 0 001.89-1.25 4.92 4.92 0 00.9-1.11 4.69 4.69 0 00.5-1.56 5.42 5.42 0 00-.09-2.06c-.66-3.31-6.25-8.78-7.79-10.14-.14.43-.32 1.22-.6 2.15s-.57 2.06-.81 3.23-.41 2.17-.54 3.18a8.87 8.87 0 000 2.74 6.27 6.27 0 005.07 5 22.74 22.74 0 010 5.28l-1.39 1.6c-.71.8-1.46 1.56-1.46 1.56l-1.25 1.33c-.37.39-.81.86-1.29 1.35l-1.54 1.5c-1.06 1-2.09 2-2.92 2.76s-1.37 1.2-1.37 1.2c-.1-1-.16-2.11-.2-2.93a5.79 5.79 0 002.62-1.39 4.78 4.78 0 001.5-4c-.19-3.42-4.74-9.7-6-11.28-.42.76-1.31 2.68-2.16 4.78a17 17 0 00-1.58 6.05 6.22 6.22 0 004.18 5.71 24.7 24.7 0 01-.83 5.23l-3.33 2.65-1.09.86-1.14.81-2.83 2c-.71.53-1.46 1-2 1.34l-.92.59c.05-1.05.15-2.11.22-2.94a5.19 5.19 0 004.32-2.71 5.45 5.45 0 00.56-2c.31-3.43-3.28-10.32-4.34-12.09-.27.37-.72 1-1.24 1.85s-1.11 1.8-1.74 2.82a17.18 17.18 0 00-2.3 5.5 6.25 6.25 0 003.3 6.26 23.12 23.12 0 01-1.59 5.06l-3.71 2.19s-.62.38-1.59.86-2.27 1.17-3.55 1.85-2.67 1.21-3.64 1.69l-1.66.74c.22-1 .47-2.08.68-2.88a6.35 6.35 0 002.94-.48 4.88 4.88 0 002.63-3.35c.91-3.25-1.56-10.7-2.3-12.63-.31.32-.81.88-1.43 1.56s-1.36 1.46-2.07 2.34c-1.42 1.79-2.93 3.63-3.36 5.25a6.33 6.33 0 002.24 6.76 21.25 21.25 0 01-2.41 4.67l-2 .78c-.49.21-1 .38-1.36.51l-.63.21-2.64.9-1 .35c-.61.21-1.46.43-2.29.67l-3.35.95c.37-1 .77-2 1.09-2.76a6.34 6.34 0 002.26.12 4.23 4.23 0 002.69-1.33 5.65 5.65 0 001.13-1.71c.67-1.57.71-4.24.48-6.81a49.21 49.21 0 00-.9-6c-.71.59-2.49 1.92-4.25 3.52-.8.74-1.61 1.48-2.29 2.24a8.94 8.94 0 00-1.59 2.24 6.32 6.32 0 001.23 7 22.21 22.21 0 01-3.08 4.28l-2.06.46a4.75 4.75 0 01-.63.14c-7.27.82-19.78 1.57-19.78 1.57s-14-.44-20.84-1.35l-.65-.12c-.4-.07-.92-.14-1.43-.28l-2.07-.49a22 22 0 01-3.06-4.26 6.31 6.31 0 001.23-7 9 9 0 00-1.57-2.25c-.68-.74-1.49-1.48-2.28-2.25-1.75-1.6-3.54-2.94-4.25-3.53a52.82 52.82 0 00-.92 6c-.22 2.57-.19 5.25.48 6.8a5.8 5.8 0 001.12 1.74 4.26 4.26 0 002.69 1.33 6.6 6.6 0 002.26-.11c.31.76.72 1.77 1.08 2.76l-3.34-1c-.85-.24-1.69-.46-2.29-.68l-1-.35-2.65-.91-.35-.12-.36-.11-1.28-.48-2-.8a21.26 21.26 0 01-2.39-4.68 6.31 6.31 0 002.25-6.75c-.43-1.62-1.93-3.46-3.33-5.27-.72-.87-1.46-1.68-2.08-2.33s-1.11-1.25-1.41-1.56c-.76 1.92-3.24 9.38-2.33 12.62a4.84 4.84 0 002.6 3.36 6.37 6.37 0 002.95.48c.2.81.46 1.85.67 2.89l-1.66-.76c-1-.47-2.32-1-3.62-1.7l-3.55-1.84c-1-.49-1.61-.87-1.61-.87l-3.66-2.11a23 23 0 01-1.58-5.05 6.28 6.28 0 003.32-6.27 16.83 16.83 0 00-2.29-5.48c-.63-1-1.23-2-1.72-2.84s-1-1.47-1.25-1.85c-1.06 1.77-4.66 8.64-4.36 12.09a5.39 5.39 0 00.55 2A5.23 5.23 0 00137 301c.08.83.16 1.89.22 2.93l-.92-.59c-.54-.36-1.3-.79-2-1.33l-2.82-2-1.14-.82-1.09-.86-3.33-2.65a25.64 25.64 0 01-.81-5.24 6.23 6.23 0 004.19-5.69 17.12 17.12 0 00-1.56-6.05c-.85-2.13-1.74-4-2.15-4.81-1.3 1.6-5.88 7.85-6.07 11.29a4.77 4.77 0 001.49 4 5.6 5.6 0 002.63 1.41c0 .83-.12 1.88-.23 2.92l-1.37-1.2c-.81-.72-1.84-1.76-2.9-2.77l-1.57-1.54c-.46-.5-.91-1-1.28-1.37L115 285.3s-.74-.77-1.46-1.57l-1.38-1.61a22.75 22.75 0 010-5.28 6.21 6.21 0 005.08-4.94 8.82 8.82 0 000-2.74c-.13-1-.34-2.1-.55-3.18s-.53-2.3-.79-3.23-.46-1.72-.62-2.17c-1.52 1.36-7.12 6.83-7.8 10.14a5.58 5.58 0 00-.09 2 4.84 4.84 0 00.49 1.56 5.73 5.73 0 00.9 1.14 6.94 6.94 0 001.89 1.24c-.19.81-.45 1.85-.73 2.87l-2.14-2.76c-1.1-1.36-2.09-2.81-2.09-2.81l-2.37 1.75.61.87c-.59 0-1.18 0-1.74-.06l-1.2-.08a7.19 7.19 0 00-1.12-3 5.69 5.69 0 00-3.71-2.48c-3.43-.69-10.82 1.58-12.8 2.23.38.43 1 1.16 1.86 2s1.92 1.75 3 2.65c2.14 1.82 4.7 3.34 6.44 3.65l.59.07a5.51 5.51 0 005.51-3.63 46.88 46.88 0 015.25 1.33s.39.51 1 1.28 1.44 1.78 2.29 2.78 1.69 2 2.34 2.72l1.13 1.2s1 1.06 2 2.14c.5.54 1 1.05 1.43 1.44s.67.63.67.63c-1 .19-2.12.31-3 .39a7.63 7.63 0 00-1.54-2.78 5.83 5.83 0 00-4.09-1.79c-3.42-.18-10.43 3.35-12.28 4.32a57.15 57.15 0 005.55 3.76c2.5 1.36 5.15 2.55 7 2.54a5.51 5.51 0 005.45-4.54 35.52 35.52 0 015.37.47l1 .89 2.2 1.93c.8.7 1.61 1.41 2.24 1.89l1 .83 1.88 1.49c.47.39.95.75 1.32 1a6.85 6.85 0 00.61.43l.87.64c-.56.18-1.14.35-1.69.51l-1.18.3a8.09 8.09 0 00-1.93-2.5 5.69 5.69 0 00-4.32-1.17c-3.41.34-9.81 4.85-11.49 6.09a48.65 48.65 0 006 2.9c2.67 1 5.44 1.79 7.24 1.48l.6-.13a5.6 5.6 0 004.14-5.16 38 38 0 015.36-.35l4.39 2.85 4.5 2.64.8.45 1.79.93 2.61 1.35c-.92.48-1.91.92-2.69 1.24a7 7 0 00-2.34-2.09 5.5 5.5 0 00-4.42-.49c-3.36 1-8.88 6.41-10.35 7.91.53.21 1.45.55 2.55.91s2.5.67 3.88 1c2.73.63 5.68.8 7.38.26 3.68-1.21 3.85-4.48 3.79-6a47.69 47.69 0 015.26-1.26l1.21.56c.72.32 1.69.79 2.68 1.15 2 .81 3.94 1.59 3.94 1.59a6.15 6.15 0 00.7.26l1.57.54 2.26.78 1 .33a16.89 16.89 0 01-1.44 1l-1 .64a7 7 0 00-2.61-1.73 5.66 5.66 0 00-4.45.19c-3.18 1.46-7.86 7.7-9.08 9.38 2.23.64 10.8 1.71 14 0a5.25 5.25 0 00.53-.29 5.6 5.6 0 002.34-6.21 51.54 51.54 0 015-2l1.58.44c.92.31 2.2.59 3.46.89l3.5.82 1.6.29a100.49 100.49 0 0013.18 1.53l.92.28c-15.77 5.14-19.89 15.07-19.89 15.07h6.71c1.92-5.72 11.67-10.37 18.85-13.09 7.17 2.73 16.92 7.41 18.83 13.13h6.71s-4.1-10-19.86-15.12l.42-.14c4.88-.3 12.7-1 18-2.37l1.5-.33c1.27-.3 2.54-.59 3.47-.88l1.58-.45a48.76 48.76 0 015 2.05 5.6 5.6 0 002.32 6.2l.52.3c3.19 1.69 11.76.62 14 0-1.22-1.7-5.89-7.94-9.06-9.41a5.67 5.67 0 00-4.45-.21 7.43 7.43 0 00-2.63 1.73l-1-.64c-.47-.3-1-.65-1.43-1l1-.33 2.27-.78 1.56-.53a7.36 7.36 0 00.7-.27l4-1.56c1-.38 1.95-.83 2.68-1.16l1.21-.55a48.73 48.73 0 015.25 1.26c-.06 1.52.1 4.8 3.78 6 1.69.54 4.65.38 7.39-.23 1.38-.29 2.73-.62 3.87-1s2-.69 2.56-.9c-1.47-1.51-7-7-10.33-7.94a5.53 5.53 0 00-4.43.47 7 7 0 00-2.34 2.1c-.78-.33-1.76-.76-2.67-1.25L250 312l1.79-.92.8-.46 4.5-2.63 4.4-2.83a38.2 38.2 0 015.37.35 5.58 5.58 0 004.12 5.19 4.77 4.77 0 00.59.11c1.81.33 4.58-.49 7.25-1.46a48.39 48.39 0 006-2.87c-1.68-1.24-8.07-5.78-11.48-6.12a5.72 5.72 0 00-4.32 1.16 8 8 0 00-1.94 2.5l-1.17-.32c-.55-.15-1.13-.32-1.69-.5l.87-.63s.24-.18.61-.43.86-.62 1.32-1l1.88-1.5 1-.82c.63-.48 1.44-1.18 2.24-1.89l2.26-1.93c.6-.52 1-.89 1-.88a35.65 35.65 0 015.36-.45c.4 1.45 1.54 4.49 5.44 4.54 1.81 0 4.46-1.15 7-2.5a59.06 59.06 0 005.55-3.76c-1.85-1-8.83-4.53-12.27-4.36a5.83 5.83 0 00-4.09 1.8 7.32 7.32 0 00-1.54 2.77c-.85-.09-1.94-.21-3-.4l.66-.64c.39-.38.93-.88 1.42-1.42 1-1.08 2-2.14 2-2.14s.44-.48 1.12-1.18 1.5-1.74 2.35-2.73 1.72-2 2.31-2.77l1-1.29a50.35 50.35 0 015.25-1.32 5.5 5.5 0 005.49 3.65c.19 0 .39 0 .59-.07 1.75-.31 4.31-1.81 6.46-3.64 1.08-.89 2.13-1.82 3-2.63s1.5-1.56 1.88-2c-2-.65-9.36-2.93-12.79-2.25a5.65 5.65 0 00-3.73 2.47 7.11 7.11 0 00-1.11 3l-1.2.09c-.57 0-1.17.05-1.75.05l.63-.88-2.38-1.75s-.98 1.37-2.05 2.69z"/><path class="cls-4" d="M310.85 233.74c.47-2.08.95-4.17.95-4.17a35.27 35.27 0 014.07-3.54 5.43 5.43 0 007 .43c1.53-1 2.93-3.58 4.17-6.16a45.9 45.9 0 002.29-6.33c-2.06.3-9.77 1.59-12.42 3.75a6.12 6.12 0 00-1.92 7.05c-.74.44-1.68 1-2.62 1.43 0 0 .28-1.44.5-2.9s.37-2.93.37-2.93.09-.65.22-1.63.21-2.28.31-3.6.21-2.62.28-3.6 0-1.65 0-1.65a38.18 38.18 0 013.49-4.17 5.5 5.5 0 006.58-.31l.44-.41c1.23-1.28 2.32-4 3.1-6.76a57.86 57.86 0 001.26-6.62c-2 .63-9.4 3.16-11.7 5.75a6.08 6.08 0 00-1.6 4.2 7.2 7.2 0 00.86 3.05l-.91.78c-.45.35-.94.73-1.42 1.08v-1.08l-.12-4.83v-1.35c0-.82-.14-1.86-.21-2.93l-.22-2.93c-.08-.81-.16-1.33-.16-1.33a39.21 39.21 0 012.83-4.64 5.48 5.48 0 006.85-1.76c1-1.46 1.69-4.32 2.08-7.16a57.45 57.45 0 00.26-6.75c-1.86.93-8.82 4.56-10.72 7.44a6 6 0 00-1 4.4 7.49 7.49 0 001.29 2.9c-.53.63-1.29 1.44-2 2.18 0 0-.16-1.47-.44-2.93s-.51-2.9-.51-2.9-.11-.65-.27-1.63-.52-2.23-.81-3.52-.57-2.57-.86-3.5-.44-1.59-.44-1.59a48.41 48.41 0 012-5 5.5 5.5 0 006.15-2.33 4.68 4.68 0 00.3-.55c1.68-3.2.64-11.85 0-14.1-1.7 1.23-7.89 5.93-9.34 9.12a5.82 5.82 0 00-.22 4.49 7.14 7.14 0 001.72 2.66l-.64 1c-.31.48-.64 1-1 1.46l-.35-1s-.38-1.15-.75-2.29c-.2-.57-.39-1.14-.54-1.58l-.24-.7s-.78-2-1.57-4c-.36-1-.81-2-1.14-2.7s-.54-1.23-.54-1.23a47.64 47.64 0 011.26-5.29c1.51.06 4.75-.1 5.95-3.81.54-1.71.38-4.69-.22-7.46-.29-1.39-.62-2.75-.94-3.9s-.68-2.05-.89-2.59c-1.49 1.48-6.9 7-7.89 10.42a5.76 5.76 0 00.47 4.47 7.15 7.15 0 002.08 2.37c-.33.78-.76 1.76-1.24 2.7l-1.18-2.73c-.34-.65-.67-1.31-.91-1.81s-.45-.8-.45-.8l-2.6-4.56-2.8-4.43a38.8 38.8 0 01.35-5.42 5.55 5.55 0 005.14-4.15l.12-.6c.32-1.82-.48-4.62-1.43-7.32a51.23 51.23 0 00-2.85-6.11c-1.22 1.7-5.73 8.14-6.08 11.58a5.77 5.77 0 001.15 4.37 8.18 8.18 0 002.46 2c-.08.35-.19.75-.3 1.18s-.32 1.15-.51 1.7l-.62-.88s-.16-.24-.43-.61-.6-.86-1-1.33l-1.48-1.91-.82-1c-.48-.65-1.16-1.46-1.86-2.26l-1.91-2.23c-.51-.61-.87-1-.87-1a36.46 36.46 0 01-.44-5.41 5.55 5.55 0 004.51-5.49c0-1.83-1.15-4.49-2.48-7a54.43 54.43 0 00-3.71-5.6c-1 1.85-4.49 8.9-4.34 12.36a5.87 5.87 0 001.78 4.13 7.34 7.34 0 002.73 1.57c-.07.86-.21 2-.39 3 0 0-.25-.28-.63-.67s-.87-1-1.41-1.45l-2.12-2-1.18-1.14c-.72-.67-1.72-1.52-2.7-2.39s-1.95-1.73-2.74-2.32-1.28-1-1.28-1a48.81 48.81 0 01-1.28-5.3 5.55 5.55 0 003.64-5.7 4.25 4.25 0 00-.07-.6c-.3-1.75-1.8-4.34-3.59-6.51-.88-1.11-1.81-2.16-2.61-3s-1.53-1.51-2-1.9c-.65 2-2.92 9.46-2.25 12.92a5.72 5.72 0 002.44 3.76 7 7 0 002.93 1.12c0 .37.05.78.08 1.22s0 1.17 0 1.76l-.87-.62-1.94-1.41-1.34-1-.63-.41-3.5-2.33c-.88-.59-1.82-1.1-2.51-1.5l-1.14-.67a20.78 20.78 0 01-1.08-2.48l-1-2.56c1.26-.83 3.8-2.88 2.62-6.61-.55-1.71-2.42-4-4.53-5.91-1-1-2.08-1.87-3-2.6s-1.75-1.26-2.22-1.57a59.92 59.92 0 00-.74 6.09c-.17 2.59-.19 5.34.41 7a5.53 5.53 0 003 3.35 7 7 0 003.05.69c.19.84.41 1.9.56 2.93 0 0-5.47-1.85-6.8-2.46-.8-.37-3.12-1.33-5.55-2.32a5.82 5.82 0 00-3.42-6.52c-3.17-1.33-10.76-.11-12.78.29 1.16 1.7 5.75 7.94 8.92 9.23a5.58 5.58 0 006.63-1.81c5 2.69 11 5.88 11.71 6.26 1.3.65 2.52 1.43 3.48 2l1.58.92c-1 .43-2 .83-2.72 1.12a6.62 6.62 0 00-2.1-2.13 4.83 4.83 0 00-4.23-.18c-3.13 1.14-7.69 7.55-8.79 9.28.43.06 1.17.16 2.08.25s2 .26 3.09.34c2.27.11 4.64.24 6.19-.34a6.3 6.3 0 004.11-5.79 21 21 0 015.17-.77l1.78 1.16c.08 0 .13.09.2.12.36.23.7.47 1 .66l.54.39 2.26 1.63s1.42 1 2.78 2.12l2.73 2.17c-1 .27-2.05.53-2.86.72a6.79 6.79 0 00-1.23-1.92 5 5 0 00-1.1-.9 4.82 4.82 0 00-1.54-.51 5.52 5.52 0 00-2 .09c-3.29.67-8.72 6.29-10.07 7.85l2.14.6a32.61 32.61 0 003.19.82c1.07.22 2.14.43 3.15.56a8.17 8.17 0 002.72 0 6.23 6.23 0 004.92-5.09 21.28 21.28 0 015.23 0l1.6 1.4c.77.72 1.53 1.47 1.53 1.47l1.32 1.27 1.34 1.3c.47.51 1 1 1.47 1.56 1 1.08 2 2.12 2.74 2.95l1.18 1.38c-1 .1-2.08.16-2.89.21a6 6 0 00-1.38-2.65 4.72 4.72 0 00-3.94-1.53c-3.4.19-9.62 4.78-11.21 6.08.76.43 2.65 1.32 4.75 2.19a16.36 16.36 0 006 1.6 6.18 6.18 0 005.65-4.21 24.79 24.79 0 015.18.84l2.61 3.37.85 1.11c.41.57.8 1.14.8 1.14l2 2.87c.51.71 1 1.47 1.32 2l.59.93c-1-.05-2.1-.15-2.91-.22a5.3 5.3 0 00-2.68-4.37 5.39 5.39 0 00-1.95-.57c-3.4-.31-10.23 3.31-12 4.36.37.27 1 .74 1.83 1.27l2.8 1.75a16.8 16.8 0 005.43 2.33 6.2 6.2 0 006.22-3.33 22.65 22.65 0 015 1.61l2.11 3.71s.37.64.85 1.63 1.16 2.27 1.82 3.59 1.2 2.66 1.66 3.66.74 1.69.74 1.69c-1-.24-2.05-.49-2.86-.7a6.25 6.25 0 00-.46-3 4.84 4.84 0 00-3.31-2.66c-3.22-.92-10.62 1.55-12.52 2.31 1.32 1.16 5.93 6 9.06 6.93a6.21 6.21 0 006.69-2.25 20.81 20.81 0 014.63 2.43l.78 2c.2.48.36 1 .49 1.38s.21.63.21.63l.9 2.67s.13.41.34 1 .43 1.48.67 2.32l.94 3.38c-1-.37-2-.78-2.73-1.11a6.86 6.86 0 00.12-2.27 4.32 4.32 0 00-1.32-2.71 5.09 5.09 0 00-1.71-1.13c-1.54-.69-4.19-.74-6.74-.51a53.57 53.57 0 00-6 .89c.59.73 1.9 2.54 3.49 4.32.75.79 1.48 1.61 2.22 2.31a8.56 8.56 0 002.22 1.58 6.17 6.17 0 006.95-1.22 21.65 21.65 0 014.22 3.12s.24 1 .47 2.08c.13.51.22 1 .28 1.43s.12.66.12.66.13.73.33 1.81.46 2.53.61 4 .36 2.91.49 4 .15 1.83.15 1.83c-.88-.54-1.75-1.1-2.45-1.56a6.4 6.4 0 00.42-3 4.72 4.72 0 00-2.3-3.56c-2.87-1.79-10.51-1.79-12.6-1.63a43.89 43.89 0 002.57 4.57 15.78 15.78 0 003.91 4.87 6.13 6.13 0 007-.06 26.74 26.74 0 013.68 3.77s.09 1.07.1 2.14.05 2.13.05 2.13l.07 2.82s-.05 1.75-.09 3.51c0 .87-.05 1.75-.07 2.4s-.08 1.11-.08 1.11l-2.23-1.9a5.56 5.56 0 00.4-5.12 5.63 5.63 0 00-1.31-1.63c-2.54-2.28-10.14-3.4-12.18-3.6a45.1 45.1 0 002 5.2 14.71 14.71 0 003 5.11 6.16 6.16 0 007 1 24.48 24.48 0 013.07 4.26l-.05.66c0 .4-.06.94-.13 1.47-.15 1.06-.28 2.12-.28 2.12s-.09.73-.23 1.82-.37 2.54-.64 4-.48 2.9-.74 4-.41 1.79-.41 1.79c-.69-.77-1.37-1.6-1.88-2.25a5.15 5.15 0 00.23-6.78c-2.18-2.68-9.52-5-11.5-5.55.1.86.54 2.94 1.06 5.15a17.47 17.47 0 002.24 5.82 6.14 6.14 0 006.71 2.14 24.37 24.37 0 012.38 4.73l-1.16 4.11s-.19.67-.39 1.35-.43 1.33-.43 1.33-.57 1.65-1.12 3.32c-.26.85-.61 1.65-.85 2.27s-.39 1-.39 1c-.57-.87-1.12-1.79-1.52-2.5a5.35 5.35 0 001.91-4.75 5.24 5.24 0 00-.7-1.92c-1.75-3-8.65-6.41-10.55-7.21 0 .46 0 1.24.08 2.22s.14 2.1.24 3.33a16.81 16.81 0 001.33 5.79 6.17 6.17 0 006.32 3.11 23.59 23.59 0 011.65 5l-1.75 3.89-.2.46c-.13.29-.33.7-.58 1.19-.5 1-1.16 2.29-1.83 3.59s-1.43 2.56-1.95 3.52l-.92 1.59c-.41-1-.81-2-1.11-2.74a6.35 6.35 0 002.11-2.13 4.94 4.94 0 00.18-4.25c-1.13-3.17-7.5-7.76-9.21-8.87-.07.43-.16 1.17-.24 2.1s-.26 2-.34 3.12c-.11 2.28-.23 4.69.35 6.25a6.16 6.16 0 005.73 4.12 22.3 22.3 0 01.78 5.23l-1.15 1.8c-.29.45-.56.9-.81 1.22s-.38.54-.38.54l-1.61 2.29 2.38 1.75s.68-1 1.38-2c.34-.49.7-1 .95-1.35s.41-.63.41-.63l2.29-3.59c.6-.9 1.08-1.86 1.49-2.53l.67-1.17a19.42 19.42 0 012.45-1.09l2.54-1c.82 1.27 2.85 3.82 6.54 2.62 1.7-.54 4-2.44 5.85-4.56 1-1.05 1.86-2.11 2.57-3.06s1.25-1.76 1.57-2.25c-1-.17-3.47-.54-6-.72s-5.3-.19-6.95.42a5.56 5.56 0 00-3.31 3 7.21 7.21 0 00-.68 3.08c-.83.2-1.87.42-2.89.57l1.33-2.62c.33-.67.68-1.32.9-1.82l.38-.84s.28-.59.68-1.49 1-2.09 1.45-3.3l1.92-4.9a36.08 36.08 0 014.55-2.9 5.5 5.5 0 006.35 1.75l.55-.25c1.65-.81 3.41-3.12 5-5.48a49.25 49.25 0 003.2-5.93c-2.08 0-9.9.12-12.85 1.87a5.74 5.74 0 00-2.82 3.51 8 8 0 00-.11 3.16l-1.14.45c-.53.2-1.1.41-1.66.58l.34-1 .24-.71c.15-.42.33-1 .48-1.59.32-1.16.66-2.32.66-2.32s.14-.52.36-1.29.5-1.81.73-2.86zM138.64 348.2A156.47 156.47 0 0142.63 202a155.9 155.9 0 0112.53-59.63 172.15 172.15 0 0120.62-34.94c8.71-10.52 16.9-17.94 23.94-24.64a50.26 50.26 0 01-3.45-4.9l-.17.11c-20.34 15.42-40.3 49.55-45.37 62.26-7.86 19.63-12.63 40.69-12.34 61.67a159.85 159.85 0 0048.29 112.49c29.68 29.31 71 46.23 112.61 45.89a158.49 158.49 0 01-60.65-12.11z"/><path class="cls-4" d="M348.27 139.72C335.39 110.64 316.2 89 304.6 78.57a51.32 51.32 0 01-4.34 5.81c17.72 14 36.87 44.26 42.6 57.59A156.51 156.51 0 01259.91 348a158.23 158.23 0 01-60.62 12.27c41.59.24 82.89-16.78 112.5-46.16a159.8 159.8 0 0048-112.6c.28-21.04-2.95-42.44-11.52-61.79z"/><path class="cls-4" d="M200 375.25c-95.95 0-174.54-78.07-175.2-174-.66-96.63 77.4-175.81 174-176.49h1.2c96 0 174.54 78.06 175.21 174 .67 96.63-77.4 175.81-174 176.49zm0-342.88h-1.21C106.41 33 31.73 108.75 32.37 201.18 33 293 108.18 367.63 200 367.63h1.21c92.43-.65 167.11-76.38 166.47-168.81C367 107 291.81 32.37 200 32.37z"/></svg>