<svg data-name="Layer 1" xmlns="http://www.w3.org/2000/svg" viewBox="0 0 400 400"><circle cx="200" cy="200" r="162.07" fill="#f65110"/><path d="M175.27 230.06q.91 28.69 24.1 28.69 11.13 0 18-6.88t6.89-19.63q0-12.39-8.84-18t-29-5.74v-23.42h5.28q27.42 0 27.43-21.8 0-9.75-5.74-15.83t-16-6.2q-22.5 0-22.72 26.85h-29.8q0-24.67 14.11-38.9t40.16-14.34q23.75 0 38.56 12.16t14.8 33.51q0 22.36-20.54 32.81 25.69 10.56 25.7 38.79 0 23.3-15.83 38.21t-42.23 14.8q-27.78 0-41.88-14t-15.38-41.08z" fill="#fff"/></svg>