<svg xmlns="http://www.w3.org/2000/svg" width="108" height="18.72" viewBox="0 0 108 18.72"><g fill="#fff"><path data-name="Fill 1" d="M13.76 12.169l3.52 2.353a9.543 9.543 0 01-7.872 4.2 9.225 9.225 0 01-5.184-1.569 9.317 9.317 0 010-15.6A9.377 9.377 0 019.408 0a9.49 9.49 0 017.872 4.2l-3.52 2.33A5.243 5.243 0 009.408 4.2a5.162 5.162 0 104.352 7.971"/><path data-name="Fill 3" d="M37.44 18.72h-4.2v-1.569a9.279 9.279 0 01-10.325 0 9.355 9.355 0 0110.325-15.6V0h4.2v18.719zM28.091 4.2a5.162 5.162 0 105.152 5.152A5.168 5.168 0 0028.091 4.2z"/><path data-name="Fill 5" d="M50.4 4.2a5.37 5.37 0 00-5.554 5.149v9.371H40.32V0h4.526v1.548A10.567 10.567 0 0150.4 0z"/><path data-name="Fill 7" d="M64.849 8.48a4.369 4.369 0 00-8.737 0v10.24H51.84V0h4.271v1.187a8.631 8.631 0 018.737 0A8.446 8.446 0 0169.12 8.48v10.24h-4.271V8.48z"/><path data-name="Fill 9" d="M79.92 18.72a9.129 9.129 0 01-5.16-1.569 9.419 9.419 0 01-4.118-6.4c-.038-.433-.082-.933-.082-1.402a10.018 10.018 0 01.4-2.777 9.658 9.658 0 013.8-5.024A9.272 9.272 0 0179.92 0a9.442 9.442 0 017.832 4.2 9.613 9.613 0 011.528 5.149 10.065 10.065 0 01-.106 1.4h-14.22a5.157 5.157 0 009.3 1.42l3.5 2.354a9.481 9.481 0 01-7.834 4.197zm0-14.52a5.172 5.172 0 00-4.351 2.372h8.7a.027.027 0 00-.01-.021.028.028 0 01-.011-.022A5.206 5.206 0 0079.92 4.2z"/><path data-name="Fill 11" d="M102.842 0H108l-6.771 9.36L108 18.72h-5.158l-4.181-5.781-4.181 5.781h-5.2l6.792-9.36L89.28 0h5.2l4.181 5.781z"/></g></svg>