<svg xmlns="http://www.w3.org/2000/svg" width="160" height="27.664" viewBox="0 0 160 27.664"><path data-name="Fill 1" d="M20.242 17.983l5.178 3.477a14.022 14.022 0 01-11.58 6.2 13.528 13.528 0 01-7.626-2.318A13.816 13.816 0 0113.84 0a13.944 13.944 0 0111.58 6.2l-5.178 3.449a7.644 7.644 0 100 8.334" fill="#f9693b"/><path data-name="Fill 3" d="M55.327 27.663h-6.2v-2.318a13.711 13.711 0 01-15.258 0A13.825 13.825 0 0149.125 2.287V0h6.2v27.662zM41.511 6.2a7.629 7.629 0 107.613 7.613A7.638 7.638 0 0041.511 6.2z" fill="#f9693b"/><path data-name="Fill 5" d="M74.767 6.2a7.731 7.731 0 00-7.828 7.613v13.851h-6.378V0h6.378v2.287A14.38 14.38 0 0174.767 0z" fill="#f9693b"/><path data-name="Fill 7" d="M96.146 12.532a6.427 6.427 0 00-12.853 0v15.132h-6.284V0h6.284v1.754a12.648 12.648 0 0112.853 0 12.49 12.49 0 016.284 10.777v15.133h-6.284V12.532z" fill="#f9693b"/><path data-name="Fill 9" d="M119.253 27.663a13.487 13.487 0 01-7.622-2.318 13.735 13.735 0 01-4.01-4.025 13.878 13.878 0 01-2.075-5.436c-.063-.671-.125-1.384-.125-2.068a14.8 14.8 0 01.6-4.1 14.321 14.321 0 012.2-4.206 14.036 14.036 0 013.41-3.223A13.7 13.7 0 01119.253 0a13.952 13.952 0 0111.573 6.2 13.71 13.71 0 011.631 3.509 13.736 13.736 0 01.627 4.1 14.849 14.849 0 01-.157 2.068h-21.013a7.621 7.621 0 0013.738 2.1l5.175 3.478a14.011 14.011 0 01-11.574 6.208zm0-21.461a7.642 7.642 0 00-6.432 3.51h12.86a.041.041 0 00-.016-.031.041.041 0 01-.016-.032 7.69 7.69 0 00-6.396-3.449z" fill="#f9693b"/><path data-name="Fill 11" d="M152.378 0H160l-10.006 13.832L160 27.664h-7.622l-6.179-8.544-6.179 8.544h-7.684l10.037-13.832L132.336 0h7.684l6.179 8.543z" fill="#f9693b"/></svg>